0
SECTION
2
HEADER
9
$INSUNITS
70
4
9
$ACADVER
1
AC1014
9
$HANDSEED
5
FFFF
0
ENDSEC
0
SECTION
2
TABLES
0
TABLE
2
VPORT
5
8
100
AcDbSymbolTable
0
ENDTAB
0
TABLE
2
LTYPE
5
5
100
AcDbSymbolTable
0
LTYPE
5
14
100
AcDbSymbolTableRecord
100
AcDbLinetypeTableRecord
2
BYBLOCK
70
0
0
LTYPE
5
15
100
AcDbSymbolTableRecord
100
AcDbLinetypeTableRecord
2
BYLAYER
70
0
0
ENDTAB
0
TABLE
2
LAYER
5
2
100
AcDbSymbolTable
70
2
0
LAYER
5
50
100
AcDbSymbolTableRecord
100
AcDbLayerTableRecord
2
0
70
0
6
CONTINUOUS
0
ENDTAB
0
TABLE
2
STYLE
5
3
100
AcDbSymbolTable
70
1
0
STYLE
5
11
100
AcDbSymbolTableRecord
100
AcDbTextStyleTableRecord
2
STANDARD
70
0
0
ENDTAB
0
TABLE
2
VIEW
5
6
100
AcDbSymbolTable
70
0
0
ENDTAB
0
TABLE
2
UCS
5
7
100
AcDbSymbolTable
70
0
0
ENDTAB
0
TABLE
2
APPID
5
9
100
AcDbSymbolTable
70
2
0
APPID
5
12
100
AcDbSymbolTableRecord
100
AcDbRegAppTableRecord
2
ACAD
70
0
0
ENDTAB
0
TABLE
2
DIMSTYLE
5
A
100
AcDbSymbolTable
70
1
0
ENDTAB
0
TABLE
2
BLOCK_RECORD
5
1
100
AcDbSymbolTable
70
1
0
BLOCK_RECORD
5
1F
100
AcDbSymbolTableRecord
100
AcDbBlockTableRecord
2
*MODEL_SPACE
0
BLOCK_RECORD
5
1B
100
AcDbSymbolTableRecord
100
AcDbBlockTableRecord
2
*PAPER_SPACE
0
ENDTAB
0
ENDSEC
0
SECTION
2
BLOCKS
0
BLOCK
5
20
100
AcDbEntity
100
AcDbBlockBegin
2
*MODEL_SPACE
0
ENDBLK
5
21
100
AcDbEntity
100
AcDbBlockEnd
0
BLOCK
5
1C
100
AcDbEntity
100
AcDbBlockBegin
2
*PAPER_SPACE
0
ENDBLK
5
1D
100
AcDbEntity
100
AcDbBlockEnd
0
ENDSEC
0
SECTION
2
ENTITIES
0
LWPOLYLINE
5
100
100
AcDbEntity
8
0
100
AcDbPolyline
90
15
70
1
43
0.0
10
253.99996185302109
20
-369.9137060020268
10
253.99996185302001
20
-427.00000000000506
42
0.41421356237310542
10
255.99996185302004
20
-429.00000000000512
10
498.00000762939197
20
-429.00000000000995
42
0.41421356237309503
10
500.00000762939203
20
-427.00000000001
10
500.00000762940039
20
-4.0000000000079439
42
0.41421356237307422
10
499.00000762940044
20
-3.0000000000079297
10
404.0000076294001
20
-3.0000000000059401
10
404.00000762940022
20
-5.9685589803848416e-12
10
384.00000762940022
20
-5.8975047068088315e-12
10
384.0000076294001
20
-3.0000000000059401
10
253.99996185302734
20
-3.000000000003098
42
0.41421356237313667
10
252.99996185302723
20
-4.0000000000031832
10
252.99996185302001
20
-367.26795469096112
42
0.18267581368169217
10
253.49996185302061
20
-368.59083034649387
42
-0.1826758136816922
0
CIRCLE
5
101
100
AcDbEntity
8
0
100
AcDbCircle
10
383.09999143707842
20
-405.99999092519465
30
-1.1013412404281553e-12
40
1.5500000000000114
210
-4.0199348378689109e-15
220
-3.1554436208840493e-30
230
1
0
CIRCLE
5
102
100
AcDbEntity
8
0
100
AcDbCircle
10
483.08501572865555
20
-405.94876713959792
30
-7.1054273576010019e-13
40
1.5500000000000114
210
-4.0199348378689109e-15
220
-3.1554436208840493e-30
230
1
0
CIRCLE
5
103
100
AcDbEntity
8
0
100
AcDbCircle
10
305.00000454488469
20
-17.000000253321446
30
-1.1013412404281553e-12
40
1.5500000000000114
210
-4.0199348378689109e-15
220
-3.1554436208840493e-30
230
1
0
CIRCLE
5
104
100
AcDbEntity
8
0
100
AcDbCircle
10
440.00000655654139
20
-17.000000253321446
30
-5.3290705182007514e-13
40
1.5500000000000114
210
-4.0199348378689109e-15
220
-3.1554436208840493e-30
230
1
0
CIRCLE
5
105
100
AcDbEntity
8
0
100
AcDbCircle
10
271.02001287279001
20
-347.50001650536598
30
-1.3855583347321954e-12
40
1.5499999999999758
210
-4.0199348378689046e-15
220
-3.1554436208840493e-30
230
1
0
CIRCLE
5
106
100
AcDbEntity
8
0
100
AcDbCircle
10
271.02659056798234
20
-322.49961337929199
30
-1.2789769243681803e-12
40
1.5500000000000114
210
-4.0199348378689109e-15
220
-3.1554436208840493e-30
230
1
0
CIRCLE
5
107
100
AcDbEntity
8
0
100
AcDbCircle
10
271.02725939400659
20
-72.500457115006185
30
-9.5923269327613525e-13
40
1.5499999999999758
210
-4.0199348378689046e-15
220
-3.1554436208840493e-30
230
1
0
CIRCLE
5
108
100
AcDbEntity
8
0
100
AcDbCircle
10
271.02719774994989
20
-97.500012866958414
30
-1.3855583347321954e-12
40
1.5500000000000114
210
-4.0199348378689109e-15
220
-3.1554436208840493e-30
230
1
0
CIRCLE
5
109
100
AcDbEntity
8
0
100
AcDbCircle
10
483.24998919852055
20
-65.499998535960771
30
-1.0658141036401503e-13
40
1.5500000000000114
210
-4.0199348378677805e-15
220
-1.5777218104420247e-30
230
1
0
CIRCLE
5
110
100
AcDbEntity
8
0
100
AcDbCircle
10
483.23856490062923
20
-96.550217383886334
30
-5.6843418860808015e-13
40
1.5500000000000114
210
-4.0199348378677805e-15
220
-1.5777218104420247e-30
230
1
0
CIRCLE
5
111
100
AcDbEntity
8
0
100
AcDbCircle
10
483.24400433161316
20
-304.47948755992246
30
-3.5527136788005009e-13
40
1.5500000000000114
210
-4.0199348378677805e-15
220
-1.5777218104420247e-30
230
1
0
CIRCLE
5
112
100
AcDbEntity
8
0
100
AcDbCircle
10
483.23572886205579
20
-335.54896744463127
30
-4.9737991503207013e-13
40
1.5500000000000114
210
-4.0199348378677805e-15
220
-1.5777218104420247e-30
230
1
0
CIRCLE
5
113
100
AcDbEntity
8
0
100
AcDbCircle
10
383.09999143707842
20
-405.99999092519482
30
0
40
1.5500000000000118
210
4.3223143214499293e-17
220
1.109138822470566e-16
230
1
0
CIRCLE
5
114
100
AcDbEntity
8
0
100
AcDbCircle
10
483.08501572865555
20
-405.94876713959809
30
0
40
1.5500000000000118
210
4.3223143214499293e-17
220
1.109138822470566e-16
230
1
0
LWPOLYLINE
5
115
100
AcDbEntity
8
0
100
AcDbPolyline
90
15
70
1
43
0.0
10
253.99996185302109
20
-369.91370600202691
10
253.99996185302001
20
-427.00000000000523
42
0.41421356237305862
10
255.99996185302001
20
-429.00000000000523
10
498.00000762939197
20
-429.00000000001
42
0.41421356237307422
10
500.00000762939209
20
-427.00000000001012
10
500.00000762940039
20
-4.000000000008086
42
0.41421356237309825
10
499.00000762940039
20
-3.0000000000080607
10
404.00000762940016
20
-3.0000000000060503
10
404.00000762940016
20
-6.1095573045122364e-12
10
384.00000762940022
20
-6.0702017529977445e-12
10
384.00000762940016
20
-3.0000000000060831
10
253.99996185302723
20
-3.0000000000032259
42
0.41421356237309426
10
252.99996185302723
20
-4.0000000000033058
10
252.99996185301995
20
-367.26795469096123
42
0.18267581368169833
10
253.49996185302061
20
-368.59083034649404
42
-0.1826758136816922
0
CIRCLE
5
116
100
AcDbEntity
8
0
100
AcDbCircle
10
305.00000454488469
20
-17.000000253321588
30
-3.5527136788005009e-14
40
1.5500000000000118
210
4.3223143214499293e-17
220
1.109138822470566e-16
230
1
0
CIRCLE
5
117
100
AcDbEntity
8
0
100
AcDbCircle
10
440.00000655654139
20
-17.000000253321588
30
-3.5527136788005009e-14
40
1.5500000000000118
210
4.3223143214499293e-17
220
1.109138822470566e-16
230
1
0
CIRCLE
5
118
100
AcDbEntity
8
0
100
AcDbCircle
10
271.02001287279001
20
-347.50001650536609
30
-3.5527136788005009e-14
40
1.5499999999999763
210
4.3223143214499281e-17
220
1.109138822470566e-16
230
1
0
CIRCLE
5
119
100
AcDbEntity
8
0
100
AcDbCircle
10
271.02659056798234
20
-322.49961337929216
30
0
40
1.5500000000000118
210
4.3223143214499293e-17
220
1.109138822470566e-16
230
1
0
CIRCLE
5
120
100
AcDbEntity
8
0
100
AcDbCircle
10
271.02725939400659
20
-72.500457115006327
30
-7.1054273576010019e-14
40
1.5499999999999763
210
4.3223143214499281e-17
220
1.109138822470566e-16
230
1
0
CIRCLE
5
121
100
AcDbEntity
8
0
100
AcDbCircle
10
271.02719774994989
20
-97.500012866958556
30
-3.5527136788005009e-14
40
1.5500000000000118
210
4.3223143214499293e-17
220
1.109138822470566e-16
230
1
0
CIRCLE
5
122
100
AcDbEntity
8
0
100
AcDbCircle
10
483.24998919852055
20
-65.499998535960913
30
-7.1054273576010019e-14
40
1.5500000000000118
210
4.3223143214498782e-17
220
1.109138822470558e-16
230
1
0
CIRCLE
5
123
100
AcDbEntity
8
0
100
AcDbCircle
10
483.23856490062923
20
-96.550217383886476
30
-7.1054273576010019e-14
40
1.5500000000000118
210
4.3223143214498782e-17
220
1.109138822470558e-16
230
1
0
CIRCLE
5
124
100
AcDbEntity
8
0
100
AcDbCircle
10
483.24400433161316
20
-304.47948755992263
30
-3.5527136788005009e-14
40
1.5500000000000118
210
4.3223143214498782e-17
220
1.109138822470558e-16
230
1
0
CIRCLE
5
125
100
AcDbEntity
8
0
100
AcDbCircle
10
483.23572886205579
20
-335.54896744463144
30
-3.5527136788005009e-14
40
1.5500000000000118
210
4.3223143214498782e-17
220
1.109138822470558e-16
230
1
0
ENDSEC
0
SECTION
2
OBJECTS
0
DICTIONARY
5
C
100
AcDbDictionary
3
ACAD_GROUP
350
D
3
ACAD_MLINESTYLE
350
17
0
DICTIONARY
5
D
100
AcDbDictionary
0
DICTIONARY
5
1A
330
C
100
AcDbDictionary
0
DICTIONARY
5
17
100
AcDbDictionary
0
ENDSEC
0
EOF
