0
SECTION
2
HEADER
9
$INSUNITS
70
4
9
$ACADVER
1
AC1014
9
$HANDSEED
5
FFFF
0
ENDSEC
0
SECTION
2
TABLES
0
TABLE
2
VPORT
5
8
100
AcDbSymbolTable
0
ENDTAB
0
TABLE
2
LTYPE
5
5
100
AcDbSymbolTable
0
LTYPE
5
14
100
AcDbSymbolTableRecord
100
AcDbLinetypeTableRecord
2
BYBLOCK
70
0
0
LTYPE
5
15
100
AcDbSymbolTableRecord
100
AcDbLinetypeTableRecord
2
BYLAYER
70
0
0
ENDTAB
0
TABLE
2
LAYER
5
2
100
AcDbSymbolTable
70
2
0
LAYER
5
50
100
AcDbSymbolTableRecord
100
AcDbLayerTableRecord
2
0
70
0
6
CONTINUOUS
0
ENDTAB
0
TABLE
2
STYLE
5
3
100
AcDbSymbolTable
70
1
0
STYLE
5
11
100
AcDbSymbolTableRecord
100
AcDbTextStyleTableRecord
2
STANDARD
70
0
0
ENDTAB
0
TABLE
2
VIEW
5
6
100
AcDbSymbolTable
70
0
0
ENDTAB
0
TABLE
2
UCS
5
7
100
AcDbSymbolTable
70
0
0
ENDTAB
0
TABLE
2
APPID
5
9
100
AcDbSymbolTable
70
2
0
APPID
5
12
100
AcDbSymbolTableRecord
100
AcDbRegAppTableRecord
2
ACAD
70
0
0
ENDTAB
0
TABLE
2
DIMSTYLE
5
A
100
AcDbSymbolTable
70
1
0
ENDTAB
0
TABLE
2
BLOCK_RECORD
5
1
100
AcDbSymbolTable
70
1
0
BLOCK_RECORD
5
1F
100
AcDbSymbolTableRecord
100
AcDbBlockTableRecord
2
*MODEL_SPACE
0
BLOCK_RECORD
5
1B
100
AcDbSymbolTableRecord
100
AcDbBlockTableRecord
2
*PAPER_SPACE
0
ENDTAB
0
ENDSEC
0
SECTION
2
BLOCKS
0
BLOCK
5
20
100
AcDbEntity
100
AcDbBlockBegin
2
*MODEL_SPACE
0
ENDBLK
5
21
100
AcDbEntity
100
AcDbBlockEnd
0
BLOCK
5
1C
100
AcDbEntity
100
AcDbBlockBegin
2
*PAPER_SPACE
0
ENDBLK
5
1D
100
AcDbEntity
100
AcDbBlockEnd
0
ENDSEC
0
SECTION
2
ENTITIES
0
LWPOLYLINE
5
100
100
AcDbEntity
8
0
100
AcDbPolyline
90
15
70
1
43
0.0
10
-253.49996185298983
20
-368.5908303464924
42
0.18267581368167696
10
-252.99996185298943
20
-367.26795469095964
10
-252.99996185299676
20
-4.0000000000014069
42
0.41421356237309503
10
-253.99996185299676
20
-3.0000000000013927
10
-384.00000762936986
20
-3.0000000000043059
10
-384.00000762936975
20
-4.2632564145606011e-12
10
-404.00000762936975
20
-4.3343106881366111e-12
10
-404.00000762936986
20
-3.0000000000043059
10
-499.00000762936997
20
-3.0000000000063665
42
0.41421356237309503
10
-500.00000762936997
20
-4.0000000000063807
10
-500.00000762936139
20
-427.00000000000853
42
0.41421356237309503
10
-498.00000762936133
20
-429.00000000000853
10
-255.99996185298934
20
-429.00000000000364
42
0.4142135623730846
10
-253.99996185298937
20
-427.00000000000358
10
-253.99996185299034
20
-369.91370600202521
42
-0.18267581368169597
0
CIRCLE
5
101
100
AcDbEntity
8
0
100
AcDbCircle
10
-383.09999143704772
20
-405.99999092519329
30
1.2434497875801753e-12
40
1.5500000000000114
210
-4.1309548374605941e-15
220
7.8886090522101233e-31
230
1
0
CIRCLE
5
102
100
AcDbEntity
8
0
100
AcDbCircle
10
-483.08501572862497
20
-405.9487671395965
30
8.1712414612411521e-13
40
1.5500000000000114
210
-4.1309548374605941e-15
220
7.8886090522101233e-31
230
1
0
CIRCLE
5
103
100
AcDbEntity
8
0
100
AcDbCircle
10
-483.23572886202527
20
-335.5489674446298
30
5.3290705182007514e-13
40
1.5500000000000114
210
-4.1309548374594629e-15
220
-7.8886090522101233e-31
230
1
0
CIRCLE
5
104
100
AcDbEntity
8
0
100
AcDbCircle
10
-483.24400433158269
20
-304.47948755992093
30
3.907985046680551e-13
40
1.5500000000000114
210
-4.1309548374594629e-15
220
-7.8886090522101233e-31
230
1
0
CIRCLE
5
105
100
AcDbEntity
8
0
100
AcDbCircle
10
-483.23856490059876
20
-96.5502173838847
30
4.2632564145606011e-13
40
1.5500000000000114
210
-4.1309548374594629e-15
220
-7.8886090522101233e-31
230
1
0
CIRCLE
5
106
100
AcDbEntity
8
0
100
AcDbCircle
10
-483.24998919849014
20
-65.499998535959207
30
-7.1054273576010019e-14
40
1.5500000000000114
210
-4.1309548374594629e-15
220
-7.8886090522101233e-31
230
1
0
CIRCLE
5
107
100
AcDbEntity
8
0
100
AcDbCircle
10
-305.00000454485422
20
-17.00000025331974
30
9.2370555648813024e-13
40
1.5500000000000114
210
-4.1309548374605941e-15
220
7.8886090522101233e-31
230
1
0
CIRCLE
5
108
100
AcDbEntity
8
0
100
AcDbCircle
10
-440.00000655651093
20
-17.000000253319811
30
3.5527136788005009e-13
40
1.5500000000000114
210
-4.1309548374605941e-15
220
7.8886090522101233e-31
230
1
0
CIRCLE
5
109
100
AcDbEntity
8
0
100
AcDbCircle
10
-271.02001287275937
20
-347.50001650536439
30
1.4566126083082054e-12
40
1.5499999999999758
210
-4.1309548374605878e-15
220
7.8886090522101233e-31
230
1
0
CIRCLE
5
110
100
AcDbEntity
8
0
100
AcDbCircle
10
-271.02659056795176
20
-322.49961337929045
30
1.3500311979441904e-12
40
1.5500000000000114
210
-4.1309548374605941e-15
220
7.8886090522101233e-31
230
1
0
CIRCLE
5
111
100
AcDbEntity
8
0
100
AcDbCircle
10
-271.02725939397607
20
-72.500457115004551
30
8.1712414612411521e-13
40
1.5499999999999758
210
-4.1309548374605878e-15
220
7.8886090522101233e-31
230
1
0
CIRCLE
5
112
100
AcDbEntity
8
0
100
AcDbCircle
10
-271.02719774991937
20
-97.500012866956709
30
1.2789769243681803e-12
40
1.5500000000000114
210
-4.1309548374605941e-15
220
7.8886090522101233e-31
230
1
0
CIRCLE
5
113
100
AcDbEntity
8
0
100
AcDbCircle
10
-383.099991437048
20
-405.99999092519334
30
-3.5527136788005009e-14
40
1.5500000000000127
210
4.3223143214365581e-17
220
-1.1102230246433309e-16
230
1
0
CIRCLE
5
114
100
AcDbEntity
8
0
100
AcDbCircle
10
-483.08501572862519
20
-405.94876713959655
30
-3.5527136788005009e-14
40
1.5500000000000127
210
4.3223143214365581e-17
220
-1.1102230246433309e-16
230
1
0
LWPOLYLINE
5
115
100
AcDbEntity
8
0
100
AcDbPolyline
90
15
70
1
43
0.0
10
-253.49996185299008
20
-368.59083034649251
42
0.18267581368162245
10
-252.99996185298968
20
-367.26795469095964
10
-252.99996185299702
20
-4.0000000000014069
42
0.41421356237304757
10
-253.99996185299702
20
-3.0000000000014482
10
-384.00000762936997
20
-3.0000000000043707
10
-384.00000762936997
20
-4.3315351305750482e-12
10
-404.00000762936997
20
-4.3825480238480914e-12
10
-404.00000762936997
20
-3.0000000000043796
10
-499.0000076293702
20
-3.0000000000064357
42
0.414213562373136
10
-500.0000076293702
20
-4.0000000000064713
10
-500.00000762936168
20
-427.00000000000864
42
0.4142135623730534
10
-498.00000762936156
20
-429.00000000000858
10
-255.99996185298963
20
-429.00000000000369
42
0.41421356237309503
10
-253.99996185298966
20
-427.00000000000358
10
-253.99996185299051
20
-369.91370600202526
42
-0.18267581368168612
0
CIRCLE
5
116
100
AcDbEntity
8
0
100
AcDbCircle
10
-483.2357288620255
20
-335.54896744462985
30
0
40
1.5500000000000127
210
4.3223143214365397e-17
220
-1.1102230246433307e-16
230
1
0
CIRCLE
5
117
100
AcDbEntity
8
0
100
AcDbCircle
10
-483.24400433158291
20
-304.47948755992104
30
0
40
1.5500000000000127
210
4.3223143214365397e-17
220
-1.1102230246433307e-16
230
1
0
CIRCLE
5
118
100
AcDbEntity
8
0
100
AcDbCircle
10
-483.23856490059893
20
-96.550217383884771
30
3.5527136788005009e-14
40
1.5500000000000127
210
4.3223143214365397e-17
220
-1.1102230246433307e-16
230
1
0
CIRCLE
5
119
100
AcDbEntity
8
0
100
AcDbCircle
10
-483.24998919849037
20
-65.499998535959278
30
3.5527136788005009e-14
40
1.5500000000000127
210
4.3223143214365397e-17
220
-1.1102230246433307e-16
230
1
0
CIRCLE
5
120
100
AcDbEntity
8
0
100
AcDbCircle
10
-305.00000454485439
20
-17.000000253319811
30
3.5527136788005009e-14
40
1.5500000000000127
210
4.3223143214365581e-17
220
-1.1102230246433309e-16
230
1
0
CIRCLE
5
121
100
AcDbEntity
8
0
100
AcDbCircle
10
-440.00000655651115
20
-17.000000253319882
30
3.5527136788005009e-14
40
1.5500000000000127
210
4.3223143214365581e-17
220
-1.1102230246433309e-16
230
1
0
CIRCLE
5
122
100
AcDbEntity
8
0
100
AcDbCircle
10
-271.02001287275959
20
-347.50001650536444
30
0
40
1.5499999999999772
210
4.3223143214365581e-17
220
-1.1102230246433309e-16
230
1
0
CIRCLE
5
123
100
AcDbEntity
8
0
100
AcDbCircle
10
-271.02659056795198
20
-322.49961337929051
30
0
40
1.5500000000000127
210
4.3223143214365581e-17
220
-1.1102230246433309e-16
230
1
0
CIRCLE
5
124
100
AcDbEntity
8
0
100
AcDbCircle
10
-271.02725939397629
20
-72.500457115004622
30
3.5527136788005009e-14
40
1.5499999999999772
210
4.3223143214365581e-17
220
-1.1102230246433309e-16
230
1
0
CIRCLE
5
125
100
AcDbEntity
8
0
100
AcDbCircle
10
-271.02719774991959
20
-97.50001286695678
30
3.5527136788005009e-14
40
1.5500000000000127
210
4.3223143214365581e-17
220
-1.1102230246433309e-16
230
1
0
ENDSEC
0
SECTION
2
OBJECTS
0
DICTIONARY
5
C
100
AcDbDictionary
3
ACAD_GROUP
350
D
3
ACAD_MLINESTYLE
350
17
0
DICTIONARY
5
D
100
AcDbDictionary
0
DICTIONARY
5
1A
330
C
100
AcDbDictionary
0
DICTIONARY
5
17
100
AcDbDictionary
0
ENDSEC
0
EOF
