0
SECTION
2
HEADER
9
$INSUNITS
70
4
9
$ACADVER
1
AC1014
9
$HANDSEED
5
FFFF
0
ENDSEC
0
SECTION
2
TABLES
0
TABLE
2
VPORT
5
8
100
AcDbSymbolTable
0
ENDTAB
0
TABLE
2
LTYPE
5
5
100
AcDbSymbolTable
0
LTYPE
5
14
100
AcDbSymbolTableRecord
100
AcDbLinetypeTableRecord
2
BYBLOCK
70
0
0
LTYPE
5
15
100
AcDbSymbolTableRecord
100
AcDbLinetypeTableRecord
2
BYLAYER
70
0
0
ENDTAB
0
TABLE
2
LAYER
5
2
100
AcDbSymbolTable
70
2
0
LAYER
5
50
100
AcDbSymbolTableRecord
100
AcDbLayerTableRecord
2
0
70
0
6
CONTINUOUS
0
ENDTAB
0
TABLE
2
STYLE
5
3
100
AcDbSymbolTable
70
1
0
STYLE
5
11
100
AcDbSymbolTableRecord
100
AcDbTextStyleTableRecord
2
STANDARD
70
0
0
ENDTAB
0
TABLE
2
VIEW
5
6
100
AcDbSymbolTable
70
0
0
ENDTAB
0
TABLE
2
UCS
5
7
100
AcDbSymbolTable
70
0
0
ENDTAB
0
TABLE
2
APPID
5
9
100
AcDbSymbolTable
70
2
0
APPID
5
12
100
AcDbSymbolTableRecord
100
AcDbRegAppTableRecord
2
ACAD
70
0
0
ENDTAB
0
TABLE
2
DIMSTYLE
5
A
100
AcDbSymbolTable
70
1
0
ENDTAB
0
TABLE
2
BLOCK_RECORD
5
1
100
AcDbSymbolTable
70
1
0
BLOCK_RECORD
5
1F
100
AcDbSymbolTableRecord
100
AcDbBlockTableRecord
2
*MODEL_SPACE
0
BLOCK_RECORD
5
1B
100
AcDbSymbolTableRecord
100
AcDbBlockTableRecord
2
*PAPER_SPACE
0
ENDTAB
0
ENDSEC
0
SECTION
2
BLOCKS
0
BLOCK
5
20
100
AcDbEntity
100
AcDbBlockBegin
2
*MODEL_SPACE
0
ENDBLK
5
21
100
AcDbEntity
100
AcDbBlockEnd
0
BLOCK
5
1C
100
AcDbEntity
100
AcDbBlockBegin
2
*PAPER_SPACE
0
ENDBLK
5
1D
100
AcDbEntity
100
AcDbBlockEnd
0
ENDSEC
0
SECTION
2
ENTITIES
0
LWPOLYLINE
5
100
100
AcDbEntity
8
0
100
AcDbPolyline
90
8
70
1
43
0.0
10
164.94999809266398
20
-422.00000333787455
42
0.41421356237309503
10
165.94999809266398
20
-421.00000333787455
10
165.94999809266363
20
-0.99999999999519651
42
0.41421356237307072
10
164.94999809266361
20
4.8056253916898452e-12
10
-1.000001907337257
20
4.8080983638953967e-12
42
0.41421356237309492
10
-2.0000019073372712
20
-0.99999999999520639
10
-2.0000019073372357
20
-420.0000033378746
42
0.41421356237307416
10
-1.9073372423202201e-06
20
-422.00000333787466
0
CIRCLE
5
101
100
AcDbEntity
8
0
100
AcDbCircle
10
159.27609838585516
20
-415.00000458982561
30
-6.3948846218409017e-13
40
1.5499999999999581
210
2.8479826500799563e-15
220
0
230
1
0
CIRCLE
5
102
100
AcDbEntity
8
0
100
AcDbCircle
10
150.29106365856171
20
-415.00000458982561
30
-6.3948846218409017e-13
40
1.5499999999999936
210
2.84798265007995e-15
220
3.1554436208840472e-30
230
1
0
CIRCLE
5
103
100
AcDbEntity
8
0
100
AcDbCircle
10
150.27989948618261
20
-7.0560425974741285
30
-2.1316282072803006e-13
40
1.5499999999999936
210
2.84798265007995e-15
220
3.1554436208840472e-30
230
1
0
CIRCLE
5
104
100
AcDbEntity
8
0
100
AcDbCircle
10
159.28495855407184
20
-6.9874514256262081
30
-2.1316282072803006e-13
40
1.5499999999999581
210
2.8479826500799563e-15
220
0
230
1
0
CIRCLE
5
105
100
AcDbEntity
8
0
100
AcDbCircle
10
14.018601035014534
20
-305.527147780343
30
-1.4210854715202004e-13
40
1.5500000000000069
210
1.2288008016808035e-17
220
-8.6135019831951688e-17
230
1
0
CIRCLE
5
106
100
AcDbEntity
8
0
100
AcDbCircle
10
14.01751245444563
20
-335.53717234570291
30
0
40
1.5499999999999914
210
1.2288008016817501e-17
220
-8.6135019831951688e-17
230
1
0
CIRCLE
5
107
100
AcDbEntity
8
0
100
AcDbCircle
10
14.015048633615642
20
-96.549312380683546
30
0
40
1.5500000000000003
210
1.2288008016817501e-17
220
-8.6135019831951688e-17
230
1
0
CIRCLE
5
108
100
AcDbEntity
8
0
100
AcDbCircle
10
13.999999687075594
20
-66.549998512491541
30
0
40
1.549999999999998
210
1.2288008016817501e-17
220
-8.6135019831948532e-17
230
1
0
LWPOLYLINE
5
109
100
AcDbEntity
8
0
100
AcDbPolyline
90
8
70
1
43
0.0
10
164.94999809266398
20
-422.00000333787455
42
0.41421356237313667
10
165.94999809266398
20
-421.00000333787455
10
165.94999809266363
20
-0.99999999999518252
42
0.41421356237306661
10
164.94999809266361
20
4.8056003620899949e-12
10
-1.0000019073372712
20
4.8080983638953967e-12
42
0.41421356237309076
10
-2.0000019073372712
20
-0.9999999999952065
10
-2.0000019073372357
20
-420.0000033378746
42
0.41421356237307416
10
-1.9073372421977556e-06
20
-422.00000333787466
0
CIRCLE
5
110
100
AcDbEntity
8
0
100
AcDbCircle
10
159.27609838585516
20
-415.00000458982561
30
0
40
1.5499999999999581
210
-0
220
0
230
1
0
CIRCLE
5
111
100
AcDbEntity
8
0
100
AcDbCircle
10
150.29106365856171
20
-415.00000458982561
30
0
40
1.5499999999999934
210
-2.052057572671956e-59
220
3.1554436208840479e-30
230
1
0
CIRCLE
5
112
100
AcDbEntity
8
0
100
AcDbCircle
10
150.27989948618261
20
-7.0560425974741285
30
0
40
1.5499999999999934
210
-5.6620715681551122e-61
220
3.1554436208840479e-30
230
1
0
CIRCLE
5
113
100
AcDbEntity
8
0
100
AcDbCircle
10
159.28495855407184
20
-6.9874514256262081
30
0
40
1.5499999999999581
210
-0
220
0
230
1
0
CIRCLE
5
114
100
AcDbEntity
8
0
100
AcDbCircle
10
14.018601035014534
20
-305.527147780343
30
0
40
1.5500000000000069
210
0
220
-0
230
1
0
CIRCLE
5
115
100
AcDbEntity
8
0
100
AcDbCircle
10
14.01751245444563
20
-335.53717234570291
30
0
40
1.5499999999999914
210
1.7001391970372815e-65
220
3.1554436208840472e-30
230
1
0
CIRCLE
5
116
100
AcDbEntity
8
0
100
AcDbCircle
10
14.015048633615642
20
-96.549312380683546
30
0
40
1.5500000000000003
210
0
220
-0
230
1
0
CIRCLE
5
117
100
AcDbEntity
8
0
100
AcDbCircle
10
13.999999687075594
20
-66.549998512491541
30
0
40
1.549999999999998
210
1.7001392536352757e-65
220
3.1554436208840472e-30
230
1
0
ENDSEC
0
SECTION
2
OBJECTS
0
DICTIONARY
5
C
100
AcDbDictionary
3
ACAD_GROUP
350
D
3
ACAD_MLINESTYLE
350
17
0
DICTIONARY
5
D
100
AcDbDictionary
0
DICTIONARY
5
1A
330
C
100
AcDbDictionary
0
DICTIONARY
5
17
100
AcDbDictionary
0
ENDSEC
0
EOF
