0
SECTION
2
HEADER
9
$INSUNITS
70
4
9
$ACADVER
1
AC1014
9
$HANDSEED
5
FFFF
0
ENDSEC
0
SECTION
2
TABLES
0
TABLE
2
VPORT
5
8
100
AcDbSymbolTable
0
ENDTAB
0
TABLE
2
LTYPE
5
5
100
AcDbSymbolTable
0
LTYPE
5
14
100
AcDbSymbolTableRecord
100
AcDbLinetypeTableRecord
2
BYBLOCK
70
0
0
LTYPE
5
15
100
AcDbSymbolTableRecord
100
AcDbLinetypeTableRecord
2
BYLAYER
70
0
0
ENDTAB
0
TABLE
2
LAYER
5
2
100
AcDbSymbolTable
70
2
0
LAYER
5
50
100
AcDbSymbolTableRecord
100
AcDbLayerTableRecord
2
0
70
0
6
CONTINUOUS
0
ENDTAB
0
TABLE
2
STYLE
5
3
100
AcDbSymbolTable
70
1
0
STYLE
5
11
100
AcDbSymbolTableRecord
100
AcDbTextStyleTableRecord
2
STANDARD
70
0
0
ENDTAB
0
TABLE
2
VIEW
5
6
100
AcDbSymbolTable
70
0
0
ENDTAB
0
TABLE
2
UCS
5
7
100
AcDbSymbolTable
70
0
0
ENDTAB
0
TABLE
2
APPID
5
9
100
AcDbSymbolTable
70
2
0
APPID
5
12
100
AcDbSymbolTableRecord
100
AcDbRegAppTableRecord
2
ACAD
70
0
0
ENDTAB
0
TABLE
2
DIMSTYLE
5
A
100
AcDbSymbolTable
70
1
0
ENDTAB
0
TABLE
2
BLOCK_RECORD
5
1
100
AcDbSymbolTable
70
1
0
BLOCK_RECORD
5
1F
100
AcDbSymbolTableRecord
100
AcDbBlockTableRecord
2
*MODEL_SPACE
0
BLOCK_RECORD
5
1B
100
AcDbSymbolTableRecord
100
AcDbBlockTableRecord
2
*PAPER_SPACE
0
ENDTAB
0
ENDSEC
0
SECTION
2
BLOCKS
0
BLOCK
5
20
100
AcDbEntity
100
AcDbBlockBegin
2
*MODEL_SPACE
0
ENDBLK
5
21
100
AcDbEntity
100
AcDbBlockEnd
0
BLOCK
5
1C
100
AcDbEntity
100
AcDbBlockBegin
2
*PAPER_SPACE
0
ENDBLK
5
1D
100
AcDbEntity
100
AcDbBlockEnd
0
ENDSEC
0
SECTION
2
ENTITIES
0
LWPOLYLINE
5
100
100
AcDbEntity
8
0
100
AcDbPolyline
90
49
70
1
43
0.0
10
-231.0000092899175
20
-419.00000330479287
42
0.41421442312087614
10
-229.00000341236586
20
-417.00000330480145
10
-229.0000034123662
20
-374.99999380111831
42
-0.41421356237309503
10
-227.00000341236617
20
-372.99999380111831
10
-146.0000000000031
20
-372.99999380111814
42
-0.41421356237309503
10
-144.0000000000031
20
-374.99999380111808
10
-144.00000000000296
20
-416.99999380111819
42
0.41421356237309503
10
-142.00000000000296
20
-418.99999380111814
10
-3.0000000000018545
20
-418.99999380111774
42
0.41421356237309503
10
-1.0000000000018616
20
-416.99999380111774
10
-1.0000000000013287
20
-383.0000004768259
10
1.9999999999986784
20
-383.00000047682579
10
1.9999999999982876
20
-363.0000004768259
10
-1.0000000000017195
20
-363.0000004768259
10
-1.0000000000013642
20
-232.99999999999741
10
1.9999999999986429
20
-232.99999999999744
10
1.999999999998785
20
-212.9999999999975
10
-1.0000000000012221
20
-212.99999999999744
10
-1.0000000000008669
20
-83.000000476827935
10
1.9999999999991402
20
-83.000000476827935
10
1.9999999999993179
20
-63.000000476828006
10
-1.0000000000006892
20
-63.000000476828006
10
-1.0000000000004405
20
-4.9999999999985789
42
0.41421356237309503
10
-3.0000000000004334
20
-2.9999999999985505
10
-95.000000000000455
20
-2.9999999999986926
10
-95.000000000000583
20
4.2632564145606011e-12
10
-115.00000000000057
20
4.0500935938325711e-12
10
-115.00000000000045
20
-2.9999999999989768
10
-217.00000000000233
20
-2.9999999999985505
10
-217.00000000000244
20
4.4053649617126212e-12
10
-237.00000000000244
20
4.5474735088646412e-12
10
-237.00000000000233
20
-2.9999999999984794
10
-329.00000000000239
20
-2.9999999999986926
42
0.41421356237309503
10
-331.00000000000239
20
-4.999999999998721
10
-331.00000000000261
20
-63.00000047682687
10
-334.00000000000261
20
-63.00000047682687
10
-334.00000000000261
20
-83.000000476826798
10
-331.00000000000256
20
-83.000000476826798
10
-331.00000000000313
20
-212.99999999999631
10
-334.00000000000318
20
-212.99999999999631
10
-334.00000000000318
20
-232.99999999999628
10
-331.00000000000313
20
-232.99999999999628
10
-331.00000000000364
20
-363.00000047682477
10
-334.00000000000369
20
-363.00000047682465
10
-334.00000000000421
20
-383.0000004768246
10
-331.00000000000421
20
-383.00000047682477
10
-331.00000000000387
20
-416.99999380111876
42
0.4142135623730846
10
-329.00000000000387
20
-418.99999380111871
10
-233.0000000000029
20
-418.99999380111836
0
CIRCLE
5
101
100
AcDbEntity
8
0
100
AcDbCircle
10
-319.50000476092089
20
-106.00000157952287
30
1.0658141036401503e-13
40
1.5500000000000114
210
1.7347234759777285e-17
220
-1.2621774483536172e-29
230
1
0
CIRCLE
5
102
100
AcDbEntity
8
0
100
AcDbCircle
10
-12.499999720603192
20
-337.99999244511071
30
-8.5265128291212022e-13
40
1.549999999999998
210
1.7347234759777288e-17
220
-1.2621774483536172e-29
230
1
0
CIRCLE
5
103
100
AcDbEntity
8
0
100
AcDbCircle
10
-177.00000263750547
20
-14.500000216066766
30
-7.1054273576010019e-14
40
1.5500000000000114
210
1.7347234759777285e-17
220
-1.2621774483536172e-29
230
1
0
CIRCLE
5
104
100
AcDbEntity
8
0
100
AcDbCircle
10
-12.499999720603192
20
-83.999998122453476
30
1.4210854715202004e-13
40
1.5499999999999936
210
1.7347234759777288e-17
220
-1.2621774483536172e-29
230
1
0
CIRCLE
5
105
100
AcDbEntity
8
0
100
AcDbCircle
10
-319.50000476092094
20
-338.00000503659192
30
-8.5265128291212022e-13
40
1.5500000000000114
210
1.7347234759777285e-17
220
-1.2621774483536172e-29
230
1
0
CIRCLE
5
106
100
AcDbEntity
8
0
100
AcDbCircle
10
-319.50000476092089
20
-84.000001251697327
30
1.4210854715202004e-13
40
1.5500000000000114
210
1.7347234759777285e-17
220
-1.2621774483536172e-29
230
1
0
CIRCLE
5
107
100
AcDbEntity
8
0
100
AcDbCircle
10
-12.500000186264515
20
-316.00000470876643
30
3.5527136788005009e-13
40
1.5500000000000114
210
1.7347234759777285e-17
220
-1.2621774483536172e-29
230
1
0
CIRCLE
5
108
100
AcDbEntity
8
0
100
AcDbCircle
10
-155.00000230967993
20
-14.500000216066766
30
-7.1054273576010019e-14
40
1.5500000000000114
210
1.7347234759777285e-17
220
-1.2621774483536172e-29
230
1
0
CIRCLE
5
109
100
AcDbEntity
8
0
100
AcDbCircle
10
-12.500000186264479
20
-106.00000157952287
30
1.0658141036401503e-13
40
1.5499999999999958
210
1.7347234759777285e-17
220
-1.2621774483536172e-29
230
1
0
CIRCLE
5
110
100
AcDbEntity
8
0
100
AcDbCircle
10
-319.50000476092094
20
-316.00000470876643
30
3.5527136788005009e-13
40
1.5500000000000114
210
1.7347234759777285e-17
220
-1.2621774483536172e-29
230
1
0
CIRCLE
5
111
100
AcDbEntity
8
0
100
AcDbCircle
10
-319.50000476092089
20
-106.00000157952294
30
0
40
1.5500000000000094
210
1.7681957873808834e-17
220
8.902177418957757e-17
230
1
0
CIRCLE
5
112
100
AcDbEntity
8
0
100
AcDbCircle
10
-12.499999720603192
20
-337.99999244511082
30
3.5527136788005009e-14
40
1.549999999999996
210
1.7681957873808834e-17
220
8.902177418957757e-17
230
1
0
CIRCLE
5
113
100
AcDbEntity
8
0
100
AcDbCircle
10
-177.00000263750547
20
-14.500000216066837
30
0
40
1.5500000000000094
210
1.7681957873808834e-17
220
8.902177418957757e-17
230
1
0
CIRCLE
5
114
100
AcDbEntity
8
0
100
AcDbCircle
10
-12.499999720603192
20
-83.999998122453547
30
0
40
1.5499999999999914
210
1.7681957873808831e-17
220
8.9021774189577557e-17
230
1
0
CIRCLE
5
115
100
AcDbEntity
8
0
100
AcDbCircle
10
-319.50000476092094
20
-338.00000503659197
30
3.5527136788005009e-14
40
1.5500000000000094
210
1.7681957873808834e-17
220
8.902177418957757e-17
230
1
0
CIRCLE
5
116
100
AcDbEntity
8
0
100
AcDbCircle
10
-319.50000476092089
20
-84.000001251697398
30
0
40
1.5500000000000094
210
1.7681957873808834e-17
220
8.902177418957757e-17
230
1
0
CIRCLE
5
117
100
AcDbEntity
8
0
100
AcDbCircle
10
-12.500000186264515
20
-316.00000470876648
30
3.5527136788005009e-14
40
1.5500000000000094
210
1.7681957873808834e-17
220
8.902177418957757e-17
230
1
0
CIRCLE
5
118
100
AcDbEntity
8
0
100
AcDbCircle
10
-155.00000230967993
20
-14.500000216066837
30
0
40
1.5500000000000094
210
1.7681957873808834e-17
220
8.902177418957757e-17
230
1
0
CIRCLE
5
119
100
AcDbEntity
8
0
100
AcDbCircle
10
-12.500000186264479
20
-106.00000157952294
30
0
40
1.5499999999999938
210
1.7681957873808834e-17
220
8.902177418957757e-17
230
1
0
CIRCLE
5
120
100
AcDbEntity
8
0
100
AcDbCircle
10
-319.50000476092094
20
-316.00000470876648
30
3.5527136788005009e-14
40
1.5500000000000094
210
1.7681957873808834e-17
220
8.902177418957757e-17
230
1
0
LWPOLYLINE
5
121
100
AcDbEntity
8
0
100
AcDbPolyline
90
49
70
1
43
0.0
10
-231.0000092899175
20
-419.00000330479287
42
0.41421442312087098
10
-229.00000341236586
20
-417.00000330480151
10
-229.0000034123662
20
-374.99999380111836
42
-0.41421356237309503
10
-227.00000341236617
20
-372.99999380111836
10
-146.00000000000307
20
-372.99999380111814
42
-0.41421356237310802
10
-144.0000000000031
20
-374.99999380111819
10
-144.00000000000296
20
-416.99999380111825
42
0.41421356237309764
10
-142.00000000000296
20
-418.99999380111819
10
-3.0000000000018723
20
-418.9999938011178
42
0.41421356237307638
10
-1.0000000000018294
20
-416.99999380111785
10
-1.0000000000013325
20
-383.00000047682602
10
1.9999999999986779
20
-383.0000004768259
10
1.9999999999982854
20
-363.0000004768259
10
-1.0000000000017191
20
-363.0000004768259
10
-1.0000000000013429
20
-232.9999999999975
10
1.9999999999986424
20
-232.99999999999753
10
1.9999999999987828
20
-212.99999999999756
10
-1.0000000000012217
20
-212.99999999999753
10
-1.0000000000008811
20
-83.000000476828006
10
1.9999999999991398
20
-83.000000476828006
10
1.9999999999993157
20
-63.000000476828035
10
-1.0000000000006888
20
-63.000000476828077
10
-1.000000000000447
20
-4.9999999999986589
42
0.41421356237309725
10
-3.0000000000004343
20
-2.9999999999986531
10
-95.000000000000441
20
-2.9999999999987734
10
-95.000000000000583
20
4.188316360398403e-12
10
-115.00000000000055
20
3.9768080321855859e-12
10
-115.00000000000045
20
-2.9999999999990439
10
-217.00000000000239
20
-2.9999999999986326
10
-217.00000000000244
20
4.3304249075504231e-12
10
-237.00000000000242
20
4.474187947217656e-12
10
-237.00000000000239
20
-2.9999999999985465
10
-329.00000000000239
20
-2.9999999999987734
42
0.41421356237307433
10
-331.00000000000244
20
-4.999999999998793
10
-331.00000000000261
20
-63.000000476826933
10
-334.00000000000261
20
-63.000000476826941
10
-334.00000000000256
20
-83.000000476826898
10
-331.00000000000261
20
-83.00000047682687
10
-331.00000000000313
20
-212.99999999999636
10
-334.00000000000313
20
-212.99999999999639
10
-334.00000000000318
20
-232.99999999999636
10
-331.00000000000318
20
-232.99999999999636
10
-331.00000000000364
20
-363.00000047682477
10
-334.00000000000364
20
-363.00000047682477
10
-334.00000000000421
20
-383.00000047682477
10
-331.00000000000421
20
-383.00000047682488
10
-331.00000000000392
20
-416.99999380111882
42
0.4142135623730846
10
-329.00000000000387
20
-418.99999380111876
10
-233.0000000000029
20
-418.99999380111842
0
ENDSEC
0
SECTION
2
OBJECTS
0
DICTIONARY
5
C
100
AcDbDictionary
3
ACAD_GROUP
350
D
3
ACAD_MLINESTYLE
350
17
0
DICTIONARY
5
D
100
AcDbDictionary
0
DICTIONARY
5
1A
330
C
100
AcDbDictionary
0
DICTIONARY
5
17
100
AcDbDictionary
0
ENDSEC
0
EOF
