0
SECTION
2
HEADER
9
$INSUNITS
70
4
9
$ACADVER
1
AC1014
9
$HANDSEED
5
FFFF
0
ENDSEC
0
SECTION
2
TABLES
0
TABLE
2
VPORT
5
8
100
AcDbSymbolTable
0
ENDTAB
0
TABLE
2
LTYPE
5
5
100
AcDbSymbolTable
0
LTYPE
5
14
100
AcDbSymbolTableRecord
100
AcDbLinetypeTableRecord
2
BYBLOCK
70
0
0
LTYPE
5
15
100
AcDbSymbolTableRecord
100
AcDbLinetypeTableRecord
2
BYLAYER
70
0
0
ENDTAB
0
TABLE
2
LAYER
5
2
100
AcDbSymbolTable
70
2
0
LAYER
5
50
100
AcDbSymbolTableRecord
100
AcDbLayerTableRecord
2
0
70
0
6
CONTINUOUS
0
ENDTAB
0
TABLE
2
STYLE
5
3
100
AcDbSymbolTable
70
1
0
STYLE
5
11
100
AcDbSymbolTableRecord
100
AcDbTextStyleTableRecord
2
STANDARD
70
0
0
ENDTAB
0
TABLE
2
VIEW
5
6
100
AcDbSymbolTable
70
0
0
ENDTAB
0
TABLE
2
UCS
5
7
100
AcDbSymbolTable
70
0
0
ENDTAB
0
TABLE
2
APPID
5
9
100
AcDbSymbolTable
70
2
0
APPID
5
12
100
AcDbSymbolTableRecord
100
AcDbRegAppTableRecord
2
ACAD
70
0
0
ENDTAB
0
TABLE
2
DIMSTYLE
5
A
100
AcDbSymbolTable
70
1
0
ENDTAB
0
TABLE
2
BLOCK_RECORD
5
1
100
AcDbSymbolTable
70
1
0
BLOCK_RECORD
5
1F
100
AcDbSymbolTableRecord
100
AcDbBlockTableRecord
2
*MODEL_SPACE
0
BLOCK_RECORD
5
1B
100
AcDbSymbolTableRecord
100
AcDbBlockTableRecord
2
*PAPER_SPACE
0
ENDTAB
0
ENDSEC
0
SECTION
2
BLOCKS
0
BLOCK
5
20
100
AcDbEntity
100
AcDbBlockBegin
2
*MODEL_SPACE
0
ENDBLK
5
21
100
AcDbEntity
100
AcDbBlockEnd
0
BLOCK
5
1C
100
AcDbEntity
100
AcDbBlockBegin
2
*PAPER_SPACE
0
ENDBLK
5
1D
100
AcDbEntity
100
AcDbBlockEnd
0
ENDSEC
0
SECTION
2
ENTITIES
0
ARC
5
100
100
AcDbEntity
8
0
100
AcDbCircle
10
250.99996185302544
20
-367.00000047682875
30
6.0396132539608516e-13
40
1.9999999999999574
210
6.3108872417683635e-28
220
1.7763568394002883e-14
230
1
100
AcDbArc
50
-90.000000000002444
51
0
0
LINE
5
101
100
AcDbEntity
8
0
100
AcDbLine
10
252.99996185302544
20
-367.00000047682875
30
6.0396132539608516e-13
11
252.99996185303002
21
-4.0000000000024016
31
7.1054273576010019e-14
0
ARC
5
102
100
AcDbEntity
8
0
100
AcDbCircle
10
251.99996185303004
20
-4.0000000000024016
30
-1.4210854715202004e-13
40
0.99999999999997868
210
-2.131628207280346e-13
220
0
230
1
100
AcDbArc
50
0
51
90
0
LINE
5
103
100
AcDbEntity
8
0
100
AcDbLine
10
251.99996185303004
20
-3.0000000000023874
30
-1.4210854715202004e-13
11
118.00000175833716
21
-3.0000000000006821
31
3.5527136788005009e-14
0
LINE
5
104
100
AcDbEntity
8
0
100
AcDbLine
10
118.00000175833716
20
-3.0000000000006821
30
3.5527136788005009e-14
11
118.00000175833719
21
-7.1054273576010019e-13
31
-4.9322818185260076e-06
0
LINE
5
105
100
AcDbEntity
8
0
100
AcDbLine
10
118.00000175833719
20
-7.1054273576010019e-13
30
-4.9322818185260076e-06
11
98.000001460313968
21
-4.9737991503207013e-13
31
-4.9322818895802811e-06
0
LINE
5
106
100
AcDbEntity
8
0
100
AcDbLine
10
98.000001460313968
20
-4.9737991503207013e-13
30
-4.9322818895802811e-06
11
98.000001460313939
21
-3.00000000000054
31
-4.9322818540531443e-06
0
LINE
5
107
100
AcDbEntity
8
0
100
AcDbLine
10
98.000001460313939
20
-3.00000000000054
30
-4.9322818540531443e-06
11
2.0000000000027285
21
-2.999999999999261
31
3.5527136788005009e-14
0
ARC
5
108
100
AcDbEntity
8
0
100
AcDbCircle
10
2.0000000000026574
20
-4.9999999999992895
30
-1.7763568394002505e-13
40
2.0000000000000284
210
-3.786532345060749e-27
220
-1.0658141036401351e-13
230
1
100
AcDbArc
50
89.999999999997954
51
180
0
LINE
5
109
100
AcDbEntity
8
0
100
AcDbLine
10
2.6645352591003757e-12
20
-4.9999999999992184
30
-1.7763568394002505e-13
11
1.9184653865522705e-12
21
-63.000000476827438
31
-2.8421709430404007e-13
0
LINE
5
110
100
AcDbEntity
8
0
100
AcDbLine
10
1.9184653865522705e-12
20
-63.000000476827438
30
-2.8421709430404007e-13
11
3.0000000000019256
21
-63.000000476827509
31
-2.8421709430404007e-13
0
LINE
5
111
100
AcDbEntity
8
0
100
AcDbLine
10
3.0000000000019256
20
-63.000000476827509
30
-2.8421709430404007e-13
11
3.0000000000016769
21
-83.000000476827438
31
-1.4210854715202004e-13
0
LINE
5
112
100
AcDbEntity
8
0
100
AcDbLine
10
3.0000000000016769
20
-83.000000476827438
30
-1.4210854715202004e-13
11
1.6697754290362354e-12
21
-83.000000476827367
31
-1.4210854715202004e-13
0
LINE
5
113
100
AcDbEntity
8
0
100
AcDbLine
10
1.6697754290362354e-12
20
-83.000000476827367
30
-1.4210854715202004e-13
11
0
21
-212.99999999999702
31
-1.4210854715202004e-13
0
LINE
5
114
100
AcDbEntity
8
0
100
AcDbLine
10
0
20
-212.99999999999702
30
-1.4210854715202004e-13
11
3.0000000000000071
21
-212.9999999999971
31
-1.4210854715202004e-13
0
LINE
5
115
100
AcDbEntity
8
0
100
AcDbLine
10
3.0000000000000071
20
-212.9999999999971
30
-1.4210854715202004e-13
11
2.9999999999997584
21
-232.9999999999971
31
-3.5527136788005009e-14
0
LINE
5
116
100
AcDbEntity
8
0
100
AcDbLine
10
2.9999999999997584
20
-232.9999999999971
30
-3.5527136788005009e-14
11
-2.4868995751603507e-13
21
-232.99999999999702
31
-3.5527136788005009e-14
0
LINE
5
117
100
AcDbEntity
8
0
100
AcDbLine
10
-2.4868995751603507e-13
20
-232.99999999999702
30
-3.5527136788005009e-14
11
-1.8829382497642655e-12
21
-363.00000047682556
31
0
0
LINE
5
118
100
AcDbEntity
8
0
100
AcDbLine
10
-1.8829382497642655e-12
20
-363.00000047682556
30
0
11
2.9999999999981242
21
-363.00000047682556
31
0
0
LINE
5
119
100
AcDbEntity
8
0
100
AcDbLine
10
2.9999999999981242
20
-363.00000047682556
30
0
11
2.9999999999978755
21
-383.00000047682568
31
-4.6185277824406512e-13
0
LINE
5
120
100
AcDbEntity
8
0
100
AcDbLine
10
2.9999999999978755
20
-383.00000047682568
30
-4.6185277824406512e-13
11
-2.1316282072803006e-12
21
-383.00000047682568
31
-4.6185277824406512e-13
0
LINE
5
121
100
AcDbEntity
8
0
100
AcDbLine
10
-2.1316282072803006e-12
20
-383.00000047682568
30
-4.6185277824406512e-13
11
-2.7000623958883807e-12
21
-427.00000047683113
31
3.5527136788005009e-14
0
ARC
5
122
100
AcDbEntity
8
0
100
AcDbCircle
10
1.9999999999972928
20
-427.00000047683119
30
-2.1316282072803006e-13
40
1.9999999999999929
210
1.2434497875801799e-13
220
-4.4176210692376977e-27
230
1
100
AcDbArc
50
180
51
270
0
LINE
5
123
100
AcDbEntity
8
0
100
AcDbLine
10
1.9999999999972928
20
-429.00000047683113
30
-2.1316282072803006e-13
11
173.00000215534951
21
-429.00000047683147
31
3.5527136788005009e-14
0
ARC
5
124
100
AcDbEntity
8
0
100
AcDbCircle
10
173.00000215534951
20
-427.00000047683153
30
-2.1316282072803006e-13
40
1.9999999999999574
210
0
220
1.2434497875802018e-13
230
1
100
AcDbArc
50
-90
51
0
0
LINE
5
125
100
AcDbEntity
8
0
100
AcDbLine
10
175.00000215534951
20
-427.00000047683153
30
-2.1316282072803006e-13
11
175.00000215535016
21
-375.00000047682772
31
3.5527136788005009e-14
0
LINE
5
126
100
AcDbEntity
8
0
100
AcDbLine
10
175.00000215535016
20
-375.00000047682772
30
3.5527136788005009e-14
11
175.00000250493446
21
-373.00000037405925
31
3.5527136788005009e-14
0
LINE
5
127
100
AcDbEntity
8
0
100
AcDbLine
10
175.00000250493446
20
-373.00000037405925
30
3.5527136788005009e-14
11
175.00000260769951
21
-369.00000047682602
31
6.3948846218409017e-13
0
LINE
5
128
100
AcDbEntity
8
0
100
AcDbLine
10
175.00000260769951
20
-369.00000047682602
30
6.3948846218409017e-13
11
250.99996185302535
21
-369.00000047682875
31
6.3948846218409017e-13
0
CIRCLE
5
129
100
AcDbEntity
8
0
100
AcDbCircle
10
14.500000216066873
20
-316.00000470876682
30
3.1974423109204508e-13
40
1.5499999999999936
210
-2.8680761469544689e-16
220
7.8886090522101181e-31
230
1
0
CIRCLE
5
130
100
AcDbEntity
8
0
100
AcDbCircle
10
14.500000216066837
20
-106.00000157952309
30
1.7763568394002505e-13
40
1.5499999999999936
210
-2.8680761469544689e-16
220
7.8886090522101181e-31
230
1
0
CIRCLE
5
131
100
AcDbEntity
8
0
100
AcDbCircle
10
14.500000216066837
20
-338.00000503659237
30
4.2632564145606011e-13
40
1.5499999999999825
210
-2.8680761469544674e-16
220
7.8886090522101181e-31
230
1
0
CIRCLE
5
132
100
AcDbEntity
8
0
100
AcDbCircle
10
14.500000216066837
20
-84.00000125169754
30
2.1316282072803006e-13
40
1.5499999999999936
210
-2.8680761469544689e-16
220
7.8886090522101181e-31
230
1
0
CIRCLE
5
133
100
AcDbEntity
8
0
100
AcDbCircle
10
238.52739847247199
20
-322.50000000000284
30
4.2632564145606011e-13
40
1.5500000000000114
210
-1.0269562977788559e-15
220
0
230
1
0
CIRCLE
5
134
100
AcDbEntity
8
0
100
AcDbCircle
10
238.52739847247264
20
-97.5000000000027
30
7.1054273576010019e-14
40
1.5500000000000114
210
-1.0269562977788559e-15
220
0
230
1
0
CIRCLE
5
135
100
AcDbEntity
8
0
100
AcDbCircle
10
238.52739847247199
20
-347.5000000000025
30
5.3290705182007514e-13
40
1.5499999999999758
210
-1.0269562977788561e-15
220
0
230
1
0
CIRCLE
5
136
100
AcDbEntity
8
0
100
AcDbCircle
10
238.52739847247264
20
-72.500000000003126
30
3.5527136788005009e-14
40
1.5500000000000114
210
-1.0269562977788559e-15
220
0
230
1
0
CIRCLE
5
137
100
AcDbEntity
8
0
100
AcDbCircle
10
165.00000000000745
20
-73.000000476829499
30
0
40
2.6999999999999802
210
9.8607613152615265e-32
220
7.8886090522101181e-31
230
1
0
CIRCLE
5
138
100
AcDbEntity
8
0
100
AcDbCircle
10
165.00000000000111
20
-222.99999999999912
30
3.5527136788005009e-14
40
2.7000000000000002
210
9.8607613152615265e-32
220
7.8886090522101181e-31
230
1
0
CIRCLE
5
139
100
AcDbEntity
8
0
100
AcDbCircle
10
164.99999999999474
20
-373.00000047682767
30
3.5527136788005009e-14
40
2.7000000000000055
210
9.8607613152615265e-32
220
7.8886090522101181e-31
230
1
0
LWPOLYLINE
5
140
100
AcDbEntity
8
0
100
AcDbPolyline
90
29
70
1
43
0.0
10
250.99996185302535
20
-369.0000004768288
42
0.41421356237311585
10
252.99996185302541
20
-367.00000047682875
10
252.99996185303002
20
-4.0000000000024016
42
0.41421356237307183
10
251.99996185303004
20
-3.0000000000023959
10
118.00000175833716
20
-3.0000000000007003
10
118.00000175833718
20
-7.1165295878472534e-13
10
98.000001460313996
20
-4.5871550050772564e-13
10
98.000001460313939
20
-3.0000000000005391
10
2.0000000000027462
20
-2.9999999999992601
42
0.4142135623731048
10
2.6587065882210936e-12
20
-4.9999999999992655
10
1.8945261965454811e-12
20
-63.00000047682741
10
3.0000000000019234
20
-63.000000476827474
10
3.0000000000016724
20
-83.000000476827509
10
1.6719958750854857e-12
20
-83.00000047682741
10
2.3522856372567545e-14
20
-212.99999999999699
10
3.0000000000000049
20
-212.99999999999704
10
2.999999999999754
20
-232.9999999999971
10
-2.4646951146678475e-13
20
-232.99999999999704
10
-1.8949425422563441e-12
20
-363.00000047682551
10
2.9999999999981219
20
-363.00000047682568
10
2.999999999997871
20
-383.00000047682568
10
-2.1294077612310502e-12
20
-383.00000047682556
10
-2.6889601656421291e-12
20
-427.00000047683113
42
0.41421356237312007
10
1.9999999999973035
20
-429.00000047683125
10
173.00000215534951
20
-429.00000047683147
42
0.41421356237307422
10
175.00000215534953
20
-427.00000047683153
10
175.00000215535016
20
-375.00000047682772
10
175.00000250493446
20
-373.00000037405925
10
175.00000260769949
20
-369.00000047682613
0
CIRCLE
5
141
100
AcDbEntity
8
0
100
AcDbCircle
10
14.500000216066873
20
-316.00000470876682
30
0
40
1.5499999999999927
210
-1.3662187713486863e-17
220
2.7647155398363024e-17
230
1
0
CIRCLE
5
142
100
AcDbEntity
8
0
100
AcDbCircle
10
14.500000216066837
20
-106.00000157952309
30
3.5527136788005009e-14
40
1.5499999999999927
210
-1.3662187713486863e-17
220
2.7647155398363024e-17
230
1
0
CIRCLE
5
143
100
AcDbEntity
8
0
100
AcDbCircle
10
14.500000216066837
20
-338.00000503659237
30
3.5527136788005009e-14
40
1.5499999999999816
210
-1.3662187713486863e-17
220
2.7647155398363024e-17
230
1
0
CIRCLE
5
144
100
AcDbEntity
8
0
100
AcDbCircle
10
14.500000216066837
20
-84.00000125169754
30
0
40
1.5499999999999927
210
-1.3662187713486863e-17
220
2.7647155398363024e-17
230
1
0
CIRCLE
5
145
100
AcDbEntity
8
0
100
AcDbCircle
10
238.52739847247199
20
-322.50000000000284
30
3.5527136788005009e-14
40
1.5500000000000109
210
-1.3662187713486856e-17
220
2.7647155398363809e-17
230
1
0
CIRCLE
5
146
100
AcDbEntity
8
0
100
AcDbCircle
10
238.52739847247264
20
-97.5000000000027
30
3.5527136788005009e-14
40
1.5500000000000109
210
-1.3662187713486856e-17
220
2.7647155398363809e-17
230
1
0
CIRCLE
5
147
100
AcDbEntity
8
0
100
AcDbCircle
10
238.52739847247199
20
-347.5000000000025
30
3.5527136788005009e-14
40
1.5499999999999754
210
-1.3662187713486856e-17
220
2.7647155398363809e-17
230
1
0
CIRCLE
5
148
100
AcDbEntity
8
0
100
AcDbCircle
10
238.52739847247264
20
-72.500000000003126
30
0
40
1.5500000000000109
210
-1.3662187713486856e-17
220
2.7647155398363809e-17
230
1
0
CIRCLE
5
149
100
AcDbEntity
8
0
100
AcDbCircle
10
165.00000000000745
20
-73.000000476829499
30
0
40
2.6999999999999789
210
-1.3662187713486879e-17
220
2.7647155398363982e-17
230
1
0
CIRCLE
5
150
100
AcDbEntity
8
0
100
AcDbCircle
10
165.00000000000111
20
-222.99999999999912
30
0
40
2.6999999999999993
210
-1.3662187713486879e-17
220
2.7647155398363982e-17
230
1
0
CIRCLE
5
151
100
AcDbEntity
8
0
100
AcDbCircle
10
164.99999999999474
20
-373.00000047682767
30
0
40
2.7000000000000046
210
-1.3662187713486879e-17
220
2.7647155398363982e-17
230
1
0
ENDSEC
0
SECTION
2
OBJECTS
0
DICTIONARY
5
C
100
AcDbDictionary
3
ACAD_GROUP
350
D
3
ACAD_MLINESTYLE
350
17
0
DICTIONARY
5
D
100
AcDbDictionary
0
DICTIONARY
5
1A
330
C
100
AcDbDictionary
0
DICTIONARY
5
17
100
AcDbDictionary
0
ENDSEC
0
EOF
