0
SECTION
2
HEADER
9
$INSUNITS
70
4
9
$ACADVER
1
AC1014
9
$HANDSEED
5
FFFF
0
ENDSEC
0
SECTION
2
TABLES
0
TABLE
2
VPORT
5
8
100
AcDbSymbolTable
0
ENDTAB
0
TABLE
2
LTYPE
5
5
100
AcDbSymbolTable
0
LTYPE
5
14
100
AcDbSymbolTableRecord
100
AcDbLinetypeTableRecord
2
BYBLOCK
70
0
0
LTYPE
5
15
100
AcDbSymbolTableRecord
100
AcDbLinetypeTableRecord
2
BYLAYER
70
0
0
ENDTAB
0
TABLE
2
LAYER
5
2
100
AcDbSymbolTable
70
2
0
LAYER
5
50
100
AcDbSymbolTableRecord
100
AcDbLayerTableRecord
2
0
70
0
6
CONTINUOUS
0
ENDTAB
0
TABLE
2
STYLE
5
3
100
AcDbSymbolTable
70
1
0
STYLE
5
11
100
AcDbSymbolTableRecord
100
AcDbTextStyleTableRecord
2
STANDARD
70
0
0
ENDTAB
0
TABLE
2
VIEW
5
6
100
AcDbSymbolTable
70
0
0
ENDTAB
0
TABLE
2
UCS
5
7
100
AcDbSymbolTable
70
0
0
ENDTAB
0
TABLE
2
APPID
5
9
100
AcDbSymbolTable
70
2
0
APPID
5
12
100
AcDbSymbolTableRecord
100
AcDbRegAppTableRecord
2
ACAD
70
0
0
ENDTAB
0
TABLE
2
DIMSTYLE
5
A
100
AcDbSymbolTable
70
1
0
ENDTAB
0
TABLE
2
BLOCK_RECORD
5
1
100
AcDbSymbolTable
70
1
0
BLOCK_RECORD
5
1F
100
AcDbSymbolTableRecord
100
AcDbBlockTableRecord
2
*MODEL_SPACE
0
BLOCK_RECORD
5
1B
100
AcDbSymbolTableRecord
100
AcDbBlockTableRecord
2
*PAPER_SPACE
0
ENDTAB
0
ENDSEC
0
SECTION
2
BLOCKS
0
BLOCK
5
20
100
AcDbEntity
100
AcDbBlockBegin
2
*MODEL_SPACE
0
ENDBLK
5
21
100
AcDbEntity
100
AcDbBlockEnd
0
BLOCK
5
1C
100
AcDbEntity
100
AcDbBlockBegin
2
*PAPER_SPACE
0
ENDBLK
5
1D
100
AcDbEntity
100
AcDbBlockEnd
0
ENDSEC
0
SECTION
2
ENTITIES
0
LWPOLYLINE
5
100
100
AcDbEntity
8
0
100
AcDbPolyline
90
8
70
1
43
0.0
10
332.00000190736671
20
-422.00000333787136
42
0.41421356237307422
10
334.00000190736677
20
-420.00000333787136
10
334.00000190736677
20
-0.99999999999207012
42
0.41421356237303564
10
333.00000190736682
20
7.9543566674051113e-12
10
167.05106882797355
20
7.9440620748272295e-12
42
0.41452592404004485
10
166.05106939652643
20
-1.0010663514401759
10
166.49893726607593
20
-421.00107262192989
42
0.41390127490360129
10
167.49893671535048
20
-422.00000627048166
0
CIRCLE
5
101
100
AcDbEntity
8
0
100
AcDbCircle
10
172.64998422969279
20
-415.00000458982561
30
-2.8421709430404007e-13
40
1.5499999999999758
210
2.8479826500799531e-15
220
0
230
1
0
CIRCLE
5
102
100
AcDbEntity
8
0
100
AcDbCircle
10
181.64998436380324
20
-415.00000458982561
30
-3.5527136788005009e-13
40
1.5499999999999758
210
2.8479826500799531e-15
220
0
230
1
0
CIRCLE
5
103
100
AcDbEntity
8
0
100
AcDbCircle
10
172.73874234463122
20
-6.9704599527592279
30
2.1316282072803006e-13
40
1.5499999999999758
210
2.8479826500799531e-15
220
0
230
1
0
CIRCLE
5
104
100
AcDbEntity
8
0
100
AcDbCircle
10
181.64997760240135
20
-6.999998249381548
30
2.1316282072803006e-13
40
1.5500000000000114
210
2.8479826500799531e-15
220
0
230
1
0
CIRCLE
5
105
100
AcDbEntity
8
0
100
AcDbCircle
10
318.91320711689337
20
-335.53365525712695
30
0
40
1.5499999999999758
210
1.2288008016817501e-17
220
-8.6135019831951688e-17
230
1
0
CIRCLE
5
106
100
AcDbEntity
8
0
100
AcDbCircle
10
318.90595024747677
20
-305.53829986698923
30
0
40
1.5499999999999758
210
1.2288008016817501e-17
220
-8.6135019831951688e-17
230
1
0
CIRCLE
5
107
100
AcDbEntity
8
0
100
AcDbCircle
10
318.90490840287072
20
-96.534634903484204
30
0
40
1.5500000000000114
210
1.2288008016817501e-17
220
-8.6135019831951688e-17
230
1
0
CIRCLE
5
108
100
AcDbEntity
8
0
100
AcDbCircle
10
318.90861054868884
20
-66.547903600953035
30
0
40
1.5500000000000114
210
1.2288008016817501e-17
220
-8.6135019831951688e-17
230
1
0
CIRCLE
5
109
100
AcDbEntity
8
0
100
AcDbCircle
10
172.64998422969279
20
-415.00000458982561
30
0
40
1.5499999999999758
210
-2.0520575726720117e-59
220
3.1554436208840472e-30
230
1
0
CIRCLE
5
110
100
AcDbEntity
8
0
100
AcDbCircle
10
181.64998436380324
20
-415.00000458982561
30
0
40
1.5499999999999758
210
-2.0520575726720117e-59
220
3.1554436208840472e-30
230
1
0
CIRCLE
5
111
100
AcDbEntity
8
0
100
AcDbCircle
10
172.73874234463122
20
-6.9704599527592279
30
0
40
1.5499999999999758
210
-5.6620715681607699e-61
220
3.1554436208840472e-30
230
1
0
CIRCLE
5
112
100
AcDbEntity
8
0
100
AcDbCircle
10
181.64997760240135
20
-6.999998249381548
30
0
40
1.5500000000000114
210
-0
220
0
230
1
0
LWPOLYLINE
5
113
100
AcDbEntity
8
0
100
AcDbPolyline
90
8
70
1
43
0.0
10
332.00000190736671
20
-422.00000333787136
42
0.41421356237307422
10
334.00000190736677
20
-420.00000333787136
10
334.00000190736677
20
-0.99999999999205613
42
0.41421356237303147
10
333.00000190736682
20
7.9543316378050251e-12
10
167.05106882797355
20
7.9440620748272295e-12
42
0.41452592404004485
10
166.05106939652643
20
-1.0010663514401759
10
166.49893726607593
20
-421.00107262192989
42
0.41390127490360129
10
167.49893671535048
20
-422.00000627048166
0
CIRCLE
5
114
100
AcDbEntity
8
0
100
AcDbCircle
10
318.91320711689337
20
-335.53365525712695
30
0
40
1.5499999999999758
210
1.7001391970372815e-65
220
3.1554436208840472e-30
230
1
0
CIRCLE
5
115
100
AcDbEntity
8
0
100
AcDbCircle
10
318.90595024747677
20
-305.53829986698923
30
0
40
1.5499999999999758
210
1.7001391970372815e-65
220
3.1554436208840472e-30
230
1
0
CIRCLE
5
116
100
AcDbEntity
8
0
100
AcDbCircle
10
318.90490840287072
20
-96.534634903484204
30
0
40
1.5500000000000114
210
0
220
-0
230
1
0
CIRCLE
5
117
100
AcDbEntity
8
0
100
AcDbCircle
10
318.90861054868884
20
-66.547903600953035
30
0
40
1.5500000000000114
210
0
220
-0
230
1
0
ENDSEC
0
SECTION
2
OBJECTS
0
DICTIONARY
5
C
100
AcDbDictionary
3
ACAD_GROUP
350
D
3
ACAD_MLINESTYLE
350
17
0
DICTIONARY
5
D
100
AcDbDictionary
0
DICTIONARY
5
1A
330
C
100
AcDbDictionary
0
DICTIONARY
5
17
100
AcDbDictionary
0
ENDSEC
0
EOF
