0
SECTION
2
HEADER
9
$INSUNITS
70
4
9
$ACADVER
1
AC1014
9
$HANDSEED
5
FFFF
0
ENDSEC
0
SECTION
2
TABLES
0
TABLE
2
VPORT
5
8
100
AcDbSymbolTable
0
ENDTAB
0
TABLE
2
LTYPE
5
5
100
AcDbSymbolTable
0
LTYPE
5
14
100
AcDbSymbolTableRecord
100
AcDbLinetypeTableRecord
2
BYBLOCK
70
0
0
LTYPE
5
15
100
AcDbSymbolTableRecord
100
AcDbLinetypeTableRecord
2
BYLAYER
70
0
0
ENDTAB
0
TABLE
2
LAYER
5
2
100
AcDbSymbolTable
70
2
0
LAYER
5
50
100
AcDbSymbolTableRecord
100
AcDbLayerTableRecord
2
0
70
0
6
CONTINUOUS
0
ENDTAB
0
TABLE
2
STYLE
5
3
100
AcDbSymbolTable
70
1
0
STYLE
5
11
100
AcDbSymbolTableRecord
100
AcDbTextStyleTableRecord
2
STANDARD
70
0
0
ENDTAB
0
TABLE
2
VIEW
5
6
100
AcDbSymbolTable
70
0
0
ENDTAB
0
TABLE
2
UCS
5
7
100
AcDbSymbolTable
70
0
0
ENDTAB
0
TABLE
2
APPID
5
9
100
AcDbSymbolTable
70
2
0
APPID
5
12
100
AcDbSymbolTableRecord
100
AcDbRegAppTableRecord
2
ACAD
70
0
0
ENDTAB
0
TABLE
2
DIMSTYLE
5
A
100
AcDbSymbolTable
70
1
0
ENDTAB
0
TABLE
2
BLOCK_RECORD
5
1
100
AcDbSymbolTable
70
1
0
BLOCK_RECORD
5
1F
100
AcDbSymbolTableRecord
100
AcDbBlockTableRecord
2
*MODEL_SPACE
0
BLOCK_RECORD
5
1B
100
AcDbSymbolTableRecord
100
AcDbBlockTableRecord
2
*PAPER_SPACE
0
ENDTAB
0
ENDSEC
0
SECTION
2
BLOCKS
0
BLOCK
5
20
100
AcDbEntity
100
AcDbBlockBegin
2
*MODEL_SPACE
0
ENDBLK
5
21
100
AcDbEntity
100
AcDbBlockEnd
0
BLOCK
5
1C
100
AcDbEntity
100
AcDbBlockBegin
2
*PAPER_SPACE
0
ENDBLK
5
1D
100
AcDbEntity
100
AcDbBlockEnd
0
ENDSEC
0
SECTION
2
ENTITIES
0
LWPOLYLINE
5
100
100
AcDbEntity
8
0
100
AcDbPolyline
90
29
70
1
43
0.0
10
-252.99996185302558
20
-367.00000047682948
42
0.41421356237310542
10
-250.99996185302552
20
-369.00000047682943
10
-175.00000260769963
20
-369.00000047682676
10
-175.0000025049346
20
-373.00000037405994
10
-175.00000215535027
20
-375.00000047682846
10
-175.00000215534965
20
-427.00000047683227
42
0.41421356237310025
10
-173.00000215534962
20
-429.00000047683227
10
-1.9999999999973639
20
-429.00000047683187
42
0.41421356237309503
10
2.6290081223123707e-12
20
-427.00000047683193
10
2.0605739337042905e-12
20
-383.00000047682624
10
-2.9999999999979465
20
-383.0000004768263
10
-2.9999999999981952
20
-363.0000004768263
10
1.8118839761882555e-12
20
-363.00000047682624
10
1.4210854715202004e-13
20
-232.9999999999977
10
-2.999999999999865
20
-232.99999999999773
10
-3.0000000000001137
20
-212.99999999999773
10
-1.0658141036401503e-13
20
-212.9999999999977
10
-1.7408297026122455e-12
20
-83.000000476828006
10
-3.0000000000017479
20
-83.000000476828077
10
-3.0000000000019966
20
-63.000000476828077
10
-1.9895196601282805e-12
20
-63.000000476828006
10
-2.7711166694643907e-12
20
-4.9999999999997868
42
0.41421356237309503
10
-2.0000000000028351
20
-2.9999999999998295
10
-98.000001460314081
20
-3.0000000000010374
10
-98.00000146031411
20
0.21523138898743355
10
-118.00000055663965
20
0.21523138898814409
10
-118.00000175833729
20
-3.0000000000011795
10
-251.99996185303021
20
-3.0000000000029559
42
0.41421356237311585
10
-252.99996185303019
20
-4.0000000000029701
0
CIRCLE
5
101
100
AcDbEntity
8
0
100
AcDbCircle
10
-14.500000216066944
20
-316.00000470876751
30
-2.1316282072803006e-13
40
1.5499999999999936
210
-1.757876151037838e-16
220
0
230
1
0
CIRCLE
5
102
100
AcDbEntity
8
0
100
AcDbCircle
10
-14.500000216066944
20
-106.00000157952373
30
-2.1316282072803006e-13
40
1.5499999999999936
210
-1.757876151037838e-16
220
0
230
1
0
CIRCLE
5
103
100
AcDbEntity
8
0
100
AcDbCircle
10
-14.500000216066908
20
-338.00000503659305
30
-2.8421709430404007e-13
40
1.5499999999999825
210
-1.7578761510378365e-16
220
0
230
1
0
CIRCLE
5
104
100
AcDbEntity
8
0
100
AcDbCircle
10
-14.500000216066944
20
-84.00000125169818
30
-2.8421709430404007e-13
40
1.5499999999999936
210
-1.757876151037838e-16
220
0
230
1
0
CIRCLE
5
105
100
AcDbEntity
8
0
100
AcDbCircle
10
-238.52739847247216
20
-322.50000000000352
30
-3.1974423109204508e-13
40
1.5500000000000114
210
-9.1593629818719303e-16
220
7.8886090522101181e-31
230
1
0
CIRCLE
5
106
100
AcDbEntity
8
0
100
AcDbCircle
10
-238.52739847247281
20
-97.50000000000334
30
-1.4210854715202004e-13
40
1.5500000000000114
210
-9.1593629818719303e-16
220
7.8886090522101181e-31
230
1
0
CIRCLE
5
107
100
AcDbEntity
8
0
100
AcDbCircle
10
-238.52739847247216
20
-347.5000000000033
30
-3.907985046680551e-13
40
1.5499999999999758
210
-9.1593629818719323e-16
220
7.8886090522101181e-31
230
1
0
CIRCLE
5
108
100
AcDbEntity
8
0
100
AcDbCircle
10
-238.52739847247281
20
-72.500000000003695
30
-1.4210854715202004e-13
40
1.5500000000000114
210
-9.1593629818719303e-16
220
7.8886090522101181e-31
230
1
0
CIRCLE
5
109
100
AcDbEntity
8
0
100
AcDbCircle
10
-165.00000000000762
20
-73.000000476830138
30
-1.0658141036401503e-13
40
2.6999999999999802
210
1.1101999959167384e-16
220
1.5777218104420236e-30
230
1
0
CIRCLE
5
110
100
AcDbEntity
8
0
100
AcDbCircle
10
-165.00000000000125
20
-222.9999999999998
30
0
40
2.7000000000000002
210
1.1101999959167384e-16
220
1.5777218104420236e-30
230
1
0
CIRCLE
5
111
100
AcDbEntity
8
0
100
AcDbCircle
10
-164.99999999999488
20
-373.00000047682835
30
1.0658141036401503e-13
40
2.7000000000000055
210
1.1101999959167384e-16
220
1.5777218104420236e-30
230
1
0
CIRCLE
5
112
100
AcDbEntity
8
0
100
AcDbCircle
10
-14.500000216066873
20
-316.00000470876751
30
0
40
1.5499999999999934
210
-1.3662187713475288e-17
220
-2.7755575615615506e-17
230
1
0
CIRCLE
5
113
100
AcDbEntity
8
0
100
AcDbCircle
10
-14.500000216066873
20
-106.00000157952373
30
3.5527136788005009e-14
40
1.5499999999999934
210
-1.3662187713475288e-17
220
-2.7755575615615506e-17
230
1
0
CIRCLE
5
114
100
AcDbEntity
8
0
100
AcDbCircle
10
-14.500000216066837
20
-338.00000503659305
30
0
40
1.5499999999999823
210
-1.3662187713475288e-17
220
-2.7755575615615506e-17
230
1
0
CIRCLE
5
115
100
AcDbEntity
8
0
100
AcDbCircle
10
-14.500000216066873
20
-84.00000125169818
30
0
40
1.5499999999999934
210
-1.3662187713475288e-17
220
-2.7755575615615506e-17
230
1
0
CIRCLE
5
116
100
AcDbEntity
8
0
100
AcDbCircle
10
-238.52739847247207
20
-322.50000000000352
30
-3.5527136788005009e-14
40
1.5500000000000114
210
-1.3662187713475308e-17
220
-2.7755575615616292e-17
230
1
0
CIRCLE
5
117
100
AcDbEntity
8
0
100
AcDbCircle
10
-238.52739847247275
20
-97.50000000000334
30
-3.5527136788005009e-14
40
1.5500000000000114
210
-1.3662187713475308e-17
220
-2.7755575615616292e-17
230
1
0
CIRCLE
5
118
100
AcDbEntity
8
0
100
AcDbCircle
10
-238.52739847247207
20
-347.5000000000033
30
0
40
1.5499999999999758
210
-1.366218771347532e-17
220
-2.7755575615616292e-17
230
1
0
CIRCLE
5
119
100
AcDbEntity
8
0
100
AcDbCircle
10
-238.52739847247275
20
-72.500000000003695
30
0
40
1.5500000000000114
210
-1.3662187713475308e-17
220
-2.7755575615616292e-17
230
1
0
CIRCLE
5
120
100
AcDbEntity
8
0
100
AcDbCircle
10
-165.00000000000753
20
-73.000000476830138
30
0
40
2.6999999999999802
210
-1.3662187713475265e-17
220
-2.7755575615616467e-17
230
1
0
CIRCLE
5
121
100
AcDbEntity
8
0
100
AcDbCircle
10
-165.00000000000117
20
-222.9999999999998
30
0
40
2.7000000000000002
210
-1.3662187713475265e-17
220
-2.7755575615616467e-17
230
1
0
CIRCLE
5
122
100
AcDbEntity
8
0
100
AcDbCircle
10
-164.99999999999483
20
-373.00000047682835
30
-3.5527136788005009e-14
40
2.7000000000000055
210
-1.3662187713475265e-17
220
-2.7755575615616467e-17
230
1
0
LWPOLYLINE
5
123
100
AcDbEntity
8
0
100
AcDbPolyline
90
29
70
1
43
0.0
10
-252.9999618530255
20
-367.00000047682948
42
0.41421356237311585
10
-250.99996185302544
20
-369.00000047682954
10
-175.00000260769954
20
-369.00000047682676
10
-175.00000250493454
20
-373.00000037405994
10
-175.00000215535022
20
-375.00000047682846
10
-175.00000215534953
20
-427.00000047683233
42
0.41421356237306384
10
-173.00000215534959
20
-429.00000047683221
10
-1.9999999999972928
20
-429.00000047683193
42
0.41421356237310464
10
2.6589841439772499e-12
20
-427.00000047683193
10
2.1404267247502651e-12
20
-383.0000004768263
10
-2.9999999999978746
20
-383.0000004768263
10
-2.9999999999981295
20
-363.0000004768263
10
1.8818280267396403e-12
20
-363.00000047682624
10
2.2946921533708463e-13
20
-232.9999999999977
10
-2.9999999999997931
20
-232.99999999999773
10
-3.000000000000048
20
-212.99999999999773
10
-3.6637359812630166e-14
20
-212.9999999999977
10
-1.6889961590856064e-12
20
-83.000000476828006
10
-3.000000000001676
20
-83.000000476828035
10
-3.0000000000019309
20
-63.000000476828077
10
-1.9195756095768957e-12
20
-63.000000476828042
10
-2.691735723203692e-12
20
-4.9999999999997868
42
0.41421356237309293
10
-2.0000000000027547
20
-2.9999999999998583
10
-98.00000146031401
20
-3.0000000000010436
10
-98.000001460314053
20
0.21523138898743355
10
-118.00000055663958
20
0.21523138898810434
10
-118.00000175833723
20
-3.0000000000011795
10
-251.99996185303013
20
-3.0000000000029452
42
0.41421356237311735
10
-252.99996185303016
20
-4.0000000000029825
0
ENDSEC
0
SECTION
2
OBJECTS
0
DICTIONARY
5
C
100
AcDbDictionary
3
ACAD_GROUP
350
D
3
ACAD_MLINESTYLE
350
17
0
DICTIONARY
5
D
100
AcDbDictionary
0
DICTIONARY
5
1A
330
C
100
AcDbDictionary
0
DICTIONARY
5
17
100
AcDbDictionary
0
ENDSEC
0
EOF
