0
SECTION
2
HEADER
9
$INSUNITS
70
4
9
$ACADVER
1
AC1014
9
$HANDSEED
5
FFFF
0
ENDSEC
0
SECTION
2
TABLES
0
TABLE
2
VPORT
5
8
100
AcDbSymbolTable
0
ENDTAB
0
TABLE
2
LTYPE
5
5
100
AcDbSymbolTable
0
LTYPE
5
14
100
AcDbSymbolTableRecord
100
AcDbLinetypeTableRecord
2
BYBLOCK
70
0
0
LTYPE
5
15
100
AcDbSymbolTableRecord
100
AcDbLinetypeTableRecord
2
BYLAYER
70
0
0
ENDTAB
0
TABLE
2
LAYER
5
2
100
AcDbSymbolTable
70
2
0
LAYER
5
50
100
AcDbSymbolTableRecord
100
AcDbLayerTableRecord
2
0
70
0
6
CONTINUOUS
0
ENDTAB
0
TABLE
2
STYLE
5
3
100
AcDbSymbolTable
70
1
0
STYLE
5
11
100
AcDbSymbolTableRecord
100
AcDbTextStyleTableRecord
2
STANDARD
70
0
0
ENDTAB
0
TABLE
2
VIEW
5
6
100
AcDbSymbolTable
70
0
0
ENDTAB
0
TABLE
2
UCS
5
7
100
AcDbSymbolTable
70
0
0
ENDTAB
0
TABLE
2
APPID
5
9
100
AcDbSymbolTable
70
2
0
APPID
5
12
100
AcDbSymbolTableRecord
100
AcDbRegAppTableRecord
2
ACAD
70
0
0
ENDTAB
0
TABLE
2
DIMSTYLE
5
A
100
AcDbSymbolTable
70
1
0
ENDTAB
0
TABLE
2
BLOCK_RECORD
5
1
100
AcDbSymbolTable
70
1
0
BLOCK_RECORD
5
1F
100
AcDbSymbolTableRecord
100
AcDbBlockTableRecord
2
*MODEL_SPACE
0
BLOCK_RECORD
5
1B
100
AcDbSymbolTableRecord
100
AcDbBlockTableRecord
2
*PAPER_SPACE
0
ENDTAB
0
ENDSEC
0
SECTION
2
BLOCKS
0
BLOCK
5
20
100
AcDbEntity
100
AcDbBlockBegin
2
*MODEL_SPACE
0
ENDBLK
5
21
100
AcDbEntity
100
AcDbBlockEnd
0
BLOCK
5
1C
100
AcDbEntity
100
AcDbBlockBegin
2
*PAPER_SPACE
0
ENDBLK
5
1D
100
AcDbEntity
100
AcDbBlockEnd
0
ENDSEC
0
SECTION
2
ENTITIES
0
LWPOLYLINE
5
100
100
AcDbEntity
8
0
100
AcDbPolyline
90
36
70
1
43
0.0
10
-332.58310883439833
20
499.53862176634743
42
0.41421356237309503
10
-333.58310883439833
20
498.53862176634749
10
-333.58310883439822
20
403.53862176634823
10
-330.58310883439833
20
403.53862176634823
10
-330.58310883439833
20
383.53862176634834
10
-333.58310883439822
20
383.53862176634834
10
-333.58310883439827
20
252.53856836058321
10
-333.58310692704845
20
250.53856836058566
10
-333.58310692704731
20
117.59767547345572
10
-330.58310692704742
20
117.59767547345572
10
-330.58310692704742
20
97.59767547345588
10
-333.58310692704731
20
97.59767547345588
10
-333.58310692704862
20
1.5386065075645661
42
0.41421356237309503
10
-331.58310692704856
20
-0.46139349243542682
10
-236.58310692704944
20
-0.46139349243532024
10
-236.58310692704941
20
2.5386065075599973
10
-216.58310692704953
20
2.5386065075599973
10
-216.58310692704953
20
-0.46139349243528471
10
-114.58310692704792
20
-0.46139349243517813
10
-114.58310692704792
20
2.5386065075599262
10
-94.583106927048021
20
2.5386065075599262
10
-94.583106927048021
20
-0.4613934924351426
10
0.4168930729546716
20
-0.46139349243507155
42
0.41421356237309503
10
2.4168930729546645
20
1.5386065075649213
10
2.4168930729547355
20
97.576259029898168
10
-0.57625574566273485
20
97.576259029898168
10
-0.57625574566273485
20
117.57625902989801
10
2.4168930729547355
20
117.57625902989801
10
2.4168930729547711
20
250.53856836058546
10
2.4168949803052442
20
252.53856836058321
10
2.4168949803052442
20
383.53862176634823
10
-0.58310501969472739
20
383.53862176634823
10
-0.58310501969472739
20
403.53862176634806
10
2.4168949803052442
20
403.53862176634806
10
2.4168949803052797
20
498.53862176634732
42
0.41421356237309503
10
1.4168949803052655
20
499.53862176634732
0
CIRCLE
5
101
100
AcDbEntity
8
0
100
AcDbCircle
10
-163.29619171345269
20
253.40801850831559
30
-7.1054273576010019e-14
40
5.9999999999999787
210
-2.5781966260981391e-15
220
3.1554436208837221e-30
230
1
0
CIRCLE
5
102
100
AcDbEntity
8
0
100
AcDbCircle
10
-175.11674564711441
20
253.40781443802337
30
-1.4210854715202004e-13
40
1.5499999999999758
210
-8.4993860907656607e-15
220
3.1554436208828337e-30
230
1
0
CIRCLE
5
103
100
AcDbEntity
8
0
100
AcDbCircle
10
-151.47566057390509
20
253.40770456722748
30
-7.1054273576010019e-14
40
1.5500000000000114
210
-2.5781966260981391e-15
220
3.1554436208837221e-30
230
1
0
CIRCLE
5
104
100
AcDbEntity
8
0
100
AcDbCircle
10
-177.07626111821486
20
486.07626572267037
30
-9.2370555648813024e-13
40
1.5499999999999758
210
-8.5271416663812912e-15
220
3.1850280865461256e-30
230
1
0
CIRCLE
5
105
100
AcDbEntity
8
0
100
AcDbCircle
10
-154.07626077548821
20
486.07626572267037
30
-7.815970093361102e-13
40
1.5499999999999936
210
-2.6059522017137661e-15
220
3.1644848338068881e-30
230
1
0
CIRCLE
5
106
100
AcDbEntity
8
0
100
AcDbCircle
10
-316.57626319692639
20
304.57626301811109
30
2.1316282072803006e-13
40
1.5499999999999758
210
3.3152372629537566e-15
220
3.1439415810670313e-30
230
1
0
CIRCLE
5
107
100
AcDbEntity
8
0
100
AcDbCircle
10
-316.57626319692639
20
439.57626502976677
30
-2.8421709430404007e-13
40
1.5499999999999758
210
3.3152372629537566e-15
220
3.1439415810670313e-30
230
1
0
CIRCLE
5
108
100
AcDbEntity
8
0
100
AcDbCircle
10
-14.576258696776687
20
304.57626301811109
30
-2.1316282072803006e-13
40
1.5500000000000069
210
3.5464253061999366e-16
220
3.15421320743713e-30
230
1
0
CIRCLE
5
109
100
AcDbEntity
8
0
100
AcDbCircle
10
-14.576258696776687
20
439.57626502976677
30
-6.3948846218409017e-13
40
1.5500000000000003
210
3.5464253061999366e-16
220
3.15421320743713e-30
230
1
0
CIRCLE
5
110
100
AcDbEntity
8
0
100
AcDbCircle
10
-154.58310923672474
20
14.038606723631837
30
-1.4210854715202004e-13
40
1.5499999999999936
210
-2.8496808500885067e-15
220
3.0639905678946024e-30
230
1
0
CIRCLE
5
111
100
AcDbEntity
8
0
100
AcDbCircle
10
-176.58310956455017
20
14.038606723631801
30
-1.4210854715202004e-13
40
1.5500000000000114
210
3.0715086145790133e-15
220
3.2540156557411294e-30
230
1
0
CIRCLE
5
112
100
AcDbEntity
8
0
100
AcDbCircle
10
-250.6831069270533
20
164.53860650756599
30
-7.1054273576010019e-14
40
2.6999999999999602
210
0
220
3.1554436208840234e-30
230
1
0
CIRCLE
5
113
100
AcDbEntity
8
0
100
AcDbCircle
10
-280.68310692705325
20
164.53860650756599
30
-1.4210854715202004e-13
40
2.7000000000000313
210
0
220
3.1554436208840234e-30
230
1
0
CIRCLE
5
114
100
AcDbEntity
8
0
100
AcDbCircle
10
-50.483106927047544
20
164.53860650756585
30
0
40
2.7000000000000313
210
0
220
3.1554436208840234e-30
230
1
0
CIRCLE
5
115
100
AcDbEntity
8
0
100
AcDbCircle
10
-80.483106927047444
20
164.53860650756587
30
-7.1054273576010019e-14
40
2.6999999999999602
210
0
220
3.1554436208840234e-30
230
1
0
CIRCLE
5
116
100
AcDbEntity
8
0
100
AcDbCircle
10
-163.29619171345271
20
253.40801850831554
30
0
40
5.9999999999999325
210
-4.7618159415572042e-16
220
-5.2249682738744334e-16
230
1
0
CIRCLE
5
117
100
AcDbEntity
8
0
100
AcDbCircle
10
-175.11674564711444
20
253.40781443802328
30
0
40
1.5499999999999639
210
-4.7618159415572042e-16
220
-5.2249682738744334e-16
230
1
0
CIRCLE
5
118
100
AcDbEntity
8
0
100
AcDbCircle
10
-151.47566057390515
20
253.4077045672274
30
0
40
1.5499999999999994
210
-4.7618159415572042e-16
220
-5.2249682738744334e-16
230
1
0
CIRCLE
5
119
100
AcDbEntity
8
0
100
AcDbCircle
10
-177.07626111821492
20
486.07626572267037
30
1.4210854715202004e-13
40
1.5499999999999639
210
-4.7618159415572042e-16
220
-5.2249682738744334e-16
230
1
0
CIRCLE
5
120
100
AcDbEntity
8
0
100
AcDbCircle
10
-154.07626077548824
20
486.07626572267037
30
1.4210854715202004e-13
40
1.5499999999999814
210
-4.7618159415571884e-16
220
-5.2249682738744334e-16
230
1
0
CIRCLE
5
121
100
AcDbEntity
8
0
100
AcDbCircle
10
-316.57626319692639
20
304.57626301811104
30
0
40
1.5499999999999639
210
-4.7618159415572042e-16
220
-5.2249682738744334e-16
230
1
0
CIRCLE
5
122
100
AcDbEntity
8
0
100
AcDbCircle
10
-316.57626319692645
20
439.57626502976672
30
7.1054273576010019e-14
40
1.5499999999999639
210
-4.7618159415572042e-16
220
-5.2249682738744334e-16
230
1
0
CIRCLE
5
123
100
AcDbEntity
8
0
100
AcDbCircle
10
-14.576258696776723
20
304.57626301811104
30
1.4210854715202004e-13
40
1.5499999999999949
210
-4.7618159415572042e-16
220
-5.2249682738744334e-16
230
1
0
CIRCLE
5
124
100
AcDbEntity
8
0
100
AcDbCircle
10
-14.576258696776723
20
439.57626502976672
30
2.1316282072803006e-13
40
1.5499999999999883
210
-4.7618159415572042e-16
220
-5.2249682738744334e-16
230
1
0
CIRCLE
5
125
100
AcDbEntity
8
0
100
AcDbCircle
10
-154.58310923672477
20
14.038606723631766
30
-1.4210854715202004e-13
40
1.5499999999999814
210
-4.7618159415571884e-16
220
-5.2249682738744334e-16
230
1
0
CIRCLE
5
126
100
AcDbEntity
8
0
100
AcDbCircle
10
-176.58310956455023
20
14.03860672363173
30
-1.4210854715202004e-13
40
1.5499999999999994
210
-4.7618159415572042e-16
220
-5.2249682738744334e-16
230
1
0
CIRCLE
5
127
100
AcDbEntity
8
0
100
AcDbCircle
10
-250.68310692705339
20
164.53860650756593
30
-7.1054273576010019e-14
40
2.6999999999999389
210
-4.7618159415572042e-16
220
-5.2249682738744324e-16
230
1
0
CIRCLE
5
128
100
AcDbEntity
8
0
100
AcDbCircle
10
-280.68310692705325
20
164.53860650756593
30
-7.1054273576010019e-14
40
2.7000000000000099
210
-4.7618159415572042e-16
220
-5.2249682738744324e-16
230
1
0
CIRCLE
5
129
100
AcDbEntity
8
0
100
AcDbCircle
10
-50.483106927047587
20
164.53860650756579
30
0
40
2.7000000000000099
210
-4.7618159415572042e-16
220
-5.2249682738744324e-16
230
1
0
CIRCLE
5
130
100
AcDbEntity
8
0
100
AcDbCircle
10
-80.483106927047473
20
164.53860650756582
30
0
40
2.6999999999999389
210
-4.7618159415572042e-16
220
-5.2249682738744324e-16
230
1
0
LWPOLYLINE
5
131
100
AcDbEntity
8
0
100
AcDbPolyline
90
36
70
1
43
0.0
10
-332.58310883439833
20
499.53862176634749
42
0.41421356237297013
10
-333.58310883439833
20
498.53862176634749
10
-333.58310883439822
20
403.53862176634823
10
-330.58310883439833
20
403.53862176634811
10
-330.58310883439833
20
383.53862176634829
10
-333.58310883439827
20
383.53862176634829
10
-333.58310883439833
20
252.5385683605831
10
-333.58310692704845
20
250.53856836058554
10
-333.58310692704742
20
117.59767547345567
10
-330.58310692704742
20
117.59767547345564
10
-330.58310692704754
20
97.597675473455809
10
-333.58310692704748
20
97.597675473455809
10
-333.58310692704862
20
1.538606507564495
42
0.41421356237310697
10
-331.58310692704856
20
-0.4613934924354729
10
-236.58310692704941
20
-0.46139349243538708
10
-236.58310692704944
20
2.5386065075599031
10
-216.58310692704953
20
2.5386065075599125
10
-216.58310692704956
20
-0.46139349243533245
10
-114.58310692704798
20
-0.46139349243524985
10
-114.58310692704796
20
2.5386065075598321
10
-94.58310692704805
20
2.5386065075598414
10
-94.583106927048064
20
-0.46139349243519034
10
0.41689307295463607
20
-0.46139349243513844
42
0.41421356237309193
10
2.4168930729546299
20
1.5386065075648494
10
2.4168930729546863
20
97.576259029898125
10
-0.57625574566279592
20
97.576259029898097
10
-0.57625574566275839
20
117.57625902989794
10
2.4168930729547258
20
117.57625902989794
10
2.416893072954744
20
250.5385683605854
10
2.4168949803052096
20
252.53856836058316
10
2.4168949803051802
20
383.53862176634811
10
-0.58310501969478845
20
383.53862176634811
10
-0.58310501969475093
20
403.538621766348
10
2.4168949803052344
20
403.538621766348
10
2.4168949803052655
20
498.53862176634732
42
0.41421356237304607
10
1.4168949803052302
20
499.53862176634738
0
ENDSEC
0
SECTION
2
OBJECTS
0
DICTIONARY
5
C
100
AcDbDictionary
3
ACAD_GROUP
350
D
3
ACAD_MLINESTYLE
350
17
0
DICTIONARY
5
D
100
AcDbDictionary
0
DICTIONARY
5
1A
330
C
100
AcDbDictionary
0
DICTIONARY
5
17
100
AcDbDictionary
0
ENDSEC
0
EOF
